<svg xmlns="http://www.w3.org/2000/svg" xmlns:xlink="http://www.w3.org/1999/xlink" id="body_1" preserveAspectRatio="xMinYMin meet" viewBox="0 0 960 720"><defs><clipPath id="1"><path id="" clip-rule="evenodd" transform="matrix(1 0 0 1 0 0)" d="M0 540L0 0L0 0L720 0L720 0L720 540L720 540L0 540z" /></clipPath><clipPath id="2"><path id="" clip-rule="evenodd" transform="matrix(1 0 0 1 0 0)" d="M0 539.9999L720 539.9999L720 539.9999L720 -0.0001220703L720 -0.0001220703L0 -0.0001220703z" /></clipPath><clipPath id="3"><path id="" clip-rule="evenodd" transform="matrix(1 0 0 1 0 0)" d="M1.0729E-05 540L720 540L720 540L720 0L720 0L1.0729E-05 0z" /></clipPath></defs><g transform="matrix(1.333333 0 0 1.333333 0 0)"><g clip-path="url(#1)"><g clip-path="url(#2)"><path id="1" transform="matrix(1 0 0 -1 0 540)" d="M0 6.1035E-05L720 6.1035E-05L720 6.1035E-05L720 540.0001L720 540.0001L0 540.0001z" stroke="none" fill="#FFFFFF" fill-rule="evenodd" /></g><path id="2" transform="matrix(1 0 0 -1 0 540)" d="M479.18 364.37L493.05 356.5L493.05 356.5L488.55 350.5L488.55 350.5L488.55 322.37L488.55 322.37L475.43 322.37L475.43 322.37L475.43 324.62L475.43 324.62L444.3 324.62L444.3 324.62L448.43 322.75C 446.93 320.5 445.43 318.5 443.93 316.75L443.93 316.75L481.8 316.75L481.8 316.75L486.68 321.62L486.68 321.62L497.93 313.37C 498.68 312.87 498.68 312.25 497.93 311.5L497.93 311.5L494.55 308.5C 494.55 304.5 494.3 298.5 493.8 290.5C 493.55 288 493.43 286.12 493.43 284.87C 493.43 278.12 487.8 274.37 476.55 273.62C 476.8 278.12 474.05 280.75 468.3 281.5L468.3 281.5L467.55 287.5C 476.55 286.75 480.93 287.75 480.68 290.5C 481.43 295.75 481.8 301.75 481.8 308.5L481.8 308.5L476.93 308.5C 472.68 290.25 458.3 278.25 433.8 272.5L433.8 272.5L429.68 277.37C 448.68 284.87 459.93 295.25 463.43 308.5L463.43 308.5L456.68 308.5C 451.18 296 439.18 287 420.68 281.5L420.68 281.5L416.93 286.75C 429.93 293 438.68 300.25 443.18 308.5L443.18 308.5L436.05 308.5C 430.3 303.5 423.93 299.62 416.93 296.87L416.93 296.87L413.18 301.37C 421.93 307.37 428.8 314.5 433.8 322.75L433.8 322.75L427.05 322.75L427.05 322.75L427.05 361.75L427.05 361.75L440.18 361.75L440.18 361.75L440.18 359.5L440.18 359.5L474.68 359.5zM277.05 364L288.3 358C 287.3 357 285.93 355.75 284.18 354.25C 282.68 353 281.55 352 280.8 351.25L280.8 351.25L290.55 351.25L290.55 351.25L293.93 356.12L293.93 356.12L304.43 349L304.43 349L300.68 343L300.68 343L271.05 343L271.05 343L271.05 336.25L271.05 336.25L286.43 336.25L286.43 336.25L289.8 341.12L289.8 341.12L299.93 334L299.93 334L296.18 328.37L296.18 328.37L271.05 328.37L271.05 328.37L271.05 321.62L271.05 321.62L293.18 321.62L293.18 321.62L296.55 326.5L296.55 326.5L307.05 319.37L307.05 319.37L303.68 313.37L303.68 313.37L223.8 313.37L223.8 313.37L222.68 321.62L222.68 321.62L257.93 321.62L257.93 321.62L257.93 328.37L257.93 328.37L230.55 328.37L230.55 328.37L229.05 336.25L229.05 336.25L257.93 336.25L257.93 336.25L257.93 343L257.93 343L225.68 343L225.68 343L224.55 351.25L224.55 351.25L247.8 351.25C 246.31 354.25 244.43 357.12 242.18 359.87L242.18 359.87L246.68 363.62C 251.18 361.87 254.8 359.75 257.55 357.25C 259.05 356.25 259.3 355 258.3 353.5C 258.05 352.75 257.68 352 257.18 351.25L257.18 351.25L270.3 351.25C 271.8 353.5 273.55 356.87 275.55 361.37C 276.3 362.62 276.8 363.5 277.05 364zM351.68 363.25L360.3 352.37C 353.55 350.62 345.68 349.37 336.68 348.62L336.68 348.62L336.68 337L336.68 337L346.8 339.62C 345.3 341.62 343.8 343.5 342.3 345.25L342.3 345.25L346.43 348.62C 353.18 345.12 357.93 342.25 360.68 340C 362.18 339 362.55 337.75 361.8 336.25C 361.3 334.75 359.8 332.5 357.3 329.5C 356.3 328.5 355.55 328.12 355.05 328.37C 354.55 328.37 354.05 329 353.55 330.25C 353.3 330.5 353.05 330.87 352.8 331.37C 352.55 331.87 351.93 332.75 350.93 334C 346.93 331.75 339.8 328.12 329.55 323.12C 328.05 322.37 326.93 321.87 326.18 321.62L326.18 321.62L320.93 332.12C 323.43 334.12 324.68 336.5 324.68 339.25L324.68 339.25L324.68 358L324.68 358L336.68 358L336.68 358L336.68 355.37C 343.68 358.12 348.68 360.75 351.68 363.25zM555.68 362.5L567.68 362.5L567.68 362.5L567.68 345.25C 567.68 341.5 567.8 338.12 568.05 335.12L568.05 335.12L578.55 337L578.55 337L581.55 341.87L581.55 341.87L592.43 335.5L592.43 335.5L590.55 329.87L590.55 329.87L568.43 326.12C 569.18 319.87 570.05 314.25 571.05 309.25C 574.05 313.75 576.8 318.5 579.3 323.5L579.3 323.5L590.18 317.12C 586.18 309.87 581.3 303.25 575.55 297.25C 575.8 297 576.18 296.37 576.68 295.37C 577.18 294.62 577.55 294 577.8 293.5C 580.3 290.5 582.8 290.75 585.3 294.25C 585.3 294.5 585.55 294.87 586.05 295.37C 587.05 297.62 587.8 299.37 588.3 300.62L588.3 300.62L593.93 298.37C 591.68 291.62 592.43 287.5 596.18 286C 593.43 279 589.3 275.37 583.8 275.12C 576.8 275.12 570.93 279.37 566.18 287.87C 566.18 287.87 566.18 288 566.18 288.25C 560.93 283.75 555.3 279.75 549.3 276.25L549.3 276.25L546.3 279.25L546.3 279.25L536.18 279.25L536.18 279.25L536.18 284.12L536.18 284.12L521.93 284.12L521.93 284.12L521.93 277.37L521.93 277.37L510.68 277.37L510.68 277.37L510.68 323.87L510.68 323.87L521.93 323.87L521.93 323.87L521.93 321.25L521.93 321.25L523.8 321.25L523.8 321.25L523.8 362.12L523.8 362.12L535.43 362.12L535.43 362.12L535.43 345.25L535.43 345.25L541.05 345.25L541.05 345.25L544.43 348.62L544.43 348.62L552.3 341.5L552.3 341.5L549.68 337L549.68 337L535.43 337L535.43 337L535.43 321.25L535.43 321.25L536.55 321.25L536.55 321.25L539.93 325.37L539.93 325.37L549.68 319C 550.93 318.5 550.93 317.75 549.68 316.75L549.68 316.75L547.43 314.12L547.43 314.12L547.43 283C 552.68 287.5 557.55 292.37 562.05 297.62C 559.3 305.37 557.55 314.12 556.8 323.87L556.8 323.87L548.55 322.75L548.55 322.75L545.55 331L545.55 331L556.05 332.87C 555.8 338.12 555.68 343.5 555.68 349zM161.18 362.12L175.05 362.12L175.05 362.12L175.05 343.37L175.05 343.37L192.68 343.37L192.68 343.37L197.18 349L197.18 349L210.68 339.62L210.68 339.62L206.93 334.75L206.93 334.75L206.93 302.12L206.93 302.12L193.43 302.12L193.43 302.12L193.43 306.25L193.43 306.25L175.05 306.25L175.05 306.25L175.05 274L175.05 274L161.18 274L161.18 274L161.18 306.25L161.18 306.25L142.8 306.25L142.8 306.25L142.8 302.12L142.8 302.12L129.31 302.12L129.31 302.12L129.31 346.37L129.31 346.37L142.8 346.37L142.8 346.37L142.8 343.37L142.8 343.37L161.18 343.37zM391.43 361.37L402.3 353.5C 403.05 353 403.05 352.25 402.3 351.25L402.3 351.25L400.05 348.62L400.05 348.62L400.05 338.12C 400.8 329.62 396.43 325.12 386.93 324.62C 386.68 328.12 383.93 330.25 378.68 331L378.68 331L378.3 336.25C 379.3 336.25 380.55 336.12 382.05 335.87C 383.05 335.87 383.8 335.87 384.3 335.87C 386.3 336.12 387.3 337.37 387.3 339.62L387.3 339.62L387.3 348.62L387.3 348.62L380.93 348.62C 380.68 336.62 374.3 327.75 361.8 322L361.8 322L356.55 326.5C 364.05 332.5 367.93 339.87 368.18 348.62L368.18 348.62L361.8 348.62L361.8 348.62L360.3 356.87L360.3 356.87L387.68 356.87zM572.18 359.87C 576.68 358.37 580.68 356.5 584.18 354.25C 585.18 353.5 585.3 352.25 584.55 350.5C 583.55 347.75 582.43 345.62 581.18 344.12C 579.68 342.37 578.43 342.37 577.43 344.12C 575.18 347.87 572.43 351.87 569.18 356.12zM440.18 351.25L440.18 346L440.18 346L475.43 346L475.43 346L475.43 351.25zM440.18 338.12L440.18 332.87L440.18 332.87L475.43 332.87L475.43 332.87L475.43 338.12zM142.8 334.37L142.8 315.25L142.8 315.25L161.18 315.25L161.18 315.25L161.18 334.37zM175.05 334.37L175.05 315.25L175.05 315.25L193.43 315.25L193.43 315.25L193.43 334.37zM381.3 326.12L394.43 317.87L394.43 317.87L391.05 313.75L391.05 313.75L391.05 291.62L391.05 291.62L379.8 291.62C 385.05 290.62 389.93 289.5 394.43 288.25C 396.68 288 397.68 286.5 397.43 283.75C 397.18 280.75 396.55 277.87 395.55 275.12C 394.8 272.62 393.3 272.37 391.05 274.37C 383.55 278.62 373.8 283.25 361.8 288.25C 355.55 281 343.43 276.12 325.43 273.62L325.43 273.62L322.8 279.25C 346.05 284.75 356.93 295.12 355.43 310.37L355.43 310.37L369.68 310.37C 369.43 304.37 368.18 299.12 365.93 294.62C 367.43 294.37 369.55 294 372.3 293.5C 375.3 292.75 377.43 292.25 378.68 292L378.68 292L378.68 313.75L378.68 313.75L344.18 313.75L344.18 313.75L344.18 291.62L344.18 291.62L331.8 291.62L331.8 291.62L331.8 323.5L331.8 323.5L344.18 323.5L344.18 323.5L344.18 321.62L344.18 321.62L377.93 321.62zM521.93 313L521.93 292.37L521.93 292.37L536.18 292.37L536.18 292.37L536.18 313zM257.18 311.5L272.18 311.5C 271.93 309.25 271.43 307.25 270.68 305.5L270.68 305.5L290.18 305.5L290.18 305.5L293.93 310.75L293.93 310.75L304.8 303.25L304.8 303.25L301.05 297.25L301.05 297.25L272.55 297.25C 280.8 291 292.43 287.62 307.43 287.12C 303.93 282.87 301.18 278.37 299.18 273.62C 282.93 275.87 271.43 282.25 264.68 292.75C 258.93 283.5 245.3 277.37 223.8 274.37L223.8 274.37L220.8 280C 237.05 284.75 247.3 290.5 251.55 297.25L251.55 297.25L225.68 297.25L225.68 297.25L224.18 305.5L224.18 305.5L255.68 305.5C 256.43 307.25 256.93 309.25 257.18 311.5z" stroke="none" fill="#A3A3E0" fill-rule="evenodd" /><path id="3" transform="matrix(1 0 0 -1 0 540)" d="M479.18 364.37L493.05 356.5L493.05 356.5L488.55 350.5L488.55 350.5L488.55 322.37L488.55 322.37L475.43 322.37L475.43 322.37L475.43 324.62L475.43 324.62L444.3 324.62L444.3 324.62L448.43 322.75C 446.93 320.5 445.43 318.5 443.93 316.75L443.93 316.75L481.8 316.75L481.8 316.75L486.68 321.62L486.68 321.62L497.93 313.37C 498.68 312.87 498.68 312.25 497.93 311.5L497.93 311.5L494.55 308.5C 494.55 304.5 494.3 298.5 493.8 290.5C 493.55 288 493.43 286.12 493.43 284.87C 493.43 278.12 487.8 274.37 476.55 273.62C 476.8 278.12 474.05 280.75 468.3 281.5L468.3 281.5L467.55 287.5C 476.55 286.75 480.93 287.75 480.68 290.5C 481.43 295.75 481.8 301.75 481.8 308.5L481.8 308.5L476.93 308.5C 472.68 290.25 458.3 278.25 433.8 272.5L433.8 272.5L429.68 277.37C 448.68 284.87 459.93 295.25 463.43 308.5L463.43 308.5L456.68 308.5C 451.18 296 439.18 287 420.68 281.5L420.68 281.5L416.93 286.75C 429.93 293 438.68 300.25 443.18 308.5L443.18 308.5L436.05 308.5C 430.3 303.5 423.93 299.62 416.93 296.87L416.93 296.87L413.18 301.37C 421.93 307.37 428.8 314.5 433.8 322.75L433.8 322.75L427.05 322.75L427.05 322.75L427.05 361.75L427.05 361.75L440.18 361.75L440.18 361.75L440.18 359.5L440.18 359.5L474.68 359.5zM277.05 364L288.3 358C 287.3 357 285.93 355.75 284.18 354.25C 282.68 353 281.55 352 280.8 351.25L280.8 351.25L290.55 351.25L290.55 351.25L293.93 356.12L293.93 356.12L304.43 349L304.43 349L300.68 343L300.68 343L271.05 343L271.05 343L271.05 336.25L271.05 336.25L286.43 336.25L286.43 336.25L289.8 341.12L289.8 341.12L299.93 334L299.93 334L296.18 328.37L296.18 328.37L271.05 328.37L271.05 328.37L271.05 321.62L271.05 321.62L293.18 321.62L293.18 321.62L296.55 326.5L296.55 326.5L307.05 319.37L307.05 319.37L303.68 313.37L303.68 313.37L223.8 313.37L223.8 313.37L222.68 321.62L222.68 321.62L257.93 321.62L257.93 321.62L257.93 328.37L257.93 328.37L230.55 328.37L230.55 328.37L229.05 336.25L229.05 336.25L257.93 336.25L257.93 336.25L257.93 343L257.93 343L225.68 343L225.68 343L224.55 351.25L224.55 351.25L247.8 351.25C 246.31 354.25 244.43 357.12 242.18 359.87L242.18 359.87L246.68 363.62C 251.18 361.87 254.8 359.75 257.55 357.25C 259.05 356.25 259.3 355 258.3 353.5C 258.05 352.75 257.68 352 257.18 351.25L257.18 351.25L270.3 351.25C 271.8 353.5 273.55 356.87 275.55 361.37C 276.3 362.62 276.8 363.5 277.05 364zM351.68 363.25L360.3 352.37C 353.55 350.62 345.68 349.37 336.68 348.62L336.68 348.62L336.68 337L336.68 337L346.8 339.62C 345.3 341.62 343.8 343.5 342.3 345.25L342.3 345.25L346.43 348.62C 353.18 345.12 357.93 342.25 360.68 340C 362.18 339 362.55 337.75 361.8 336.25C 361.3 334.75 359.8 332.5 357.3 329.5C 356.3 328.5 355.55 328.12 355.05 328.37C 354.55 328.37 354.05 329 353.55 330.25C 353.3 330.5 353.05 330.87 352.8 331.37C 352.55 331.87 351.93 332.75 350.93 334C 346.93 331.75 339.8 328.12 329.55 323.12C 328.05 322.37 326.93 321.87 326.18 321.62L326.18 321.62L320.93 332.12C 323.43 334.12 324.68 336.5 324.68 339.25L324.68 339.25L324.68 358L324.68 358L336.68 358L336.68 358L336.68 355.37C 343.68 358.12 348.68 360.75 351.68 363.25zM555.68 362.5L567.68 362.5L567.68 362.5L567.68 345.25C 567.68 341.5 567.8 338.12 568.05 335.12L568.05 335.12L578.55 337L578.55 337L581.55 341.87L581.55 341.87L592.43 335.5L592.43 335.5L590.55 329.87L590.55 329.87L568.43 326.12C 569.18 319.87 570.05 314.25 571.05 309.25C 574.05 313.75 576.8 318.5 579.3 323.5L579.3 323.5L590.18 317.12C 586.18 309.87 581.3 303.25 575.55 297.25C 575.8 297 576.18 296.37 576.68 295.37C 577.18 294.62 577.55 294 577.8 293.5C 580.3 290.5 582.8 290.75 585.3 294.25C 585.3 294.5 585.55 294.87 586.05 295.37C 587.05 297.62 587.8 299.37 588.3 300.62L588.3 300.62L593.93 298.37C 591.68 291.62 592.43 287.5 596.18 286C 593.43 279 589.3 275.37 583.8 275.12C 576.8 275.12 570.93 279.37 566.18 287.87C 566.18 287.87 566.18 288 566.18 288.25C 560.93 283.75 555.3 279.75 549.3 276.25L549.3 276.25L546.3 279.25L546.3 279.25L536.18 279.25L536.18 279.25L536.18 284.12L536.18 284.12L521.93 284.12L521.93 284.12L521.93 277.37L521.93 277.37L510.68 277.37L510.68 277.37L510.68 323.87L510.68 323.87L521.93 323.87L521.93 323.87L521.93 321.25L521.93 321.25L523.8 321.25L523.8 321.25L523.8 362.12L523.8 362.12L535.43 362.12L535.43 362.12L535.43 345.25L535.43 345.25L541.05 345.25L541.05 345.25L544.43 348.62L544.43 348.62L552.3 341.5L552.3 341.5L549.68 337L549.68 337L535.43 337L535.43 337L535.43 321.25L535.43 321.25L536.55 321.25L536.55 321.25L539.93 325.37L539.93 325.37L549.68 319C 550.93 318.5 550.93 317.75 549.68 316.75L549.68 316.75L547.43 314.12L547.43 314.12L547.43 283C 552.68 287.5 557.55 292.37 562.05 297.62C 559.3 305.37 557.55 314.12 556.8 323.87L556.8 323.87L548.55 322.75L548.55 322.75L545.55 331L545.55 331L556.05 332.87C 555.8 338.12 555.68 343.5 555.68 349zM161.18 362.12L175.05 362.12L175.05 362.12L175.05 343.37L175.05 343.37L192.68 343.37L192.68 343.37L197.18 349L197.18 349L210.68 339.62L210.68 339.62L206.93 334.75L206.93 334.75L206.93 302.12L206.93 302.12L193.43 302.12L193.43 302.12L193.43 306.25L193.43 306.25L175.05 306.25L175.05 306.25L175.05 274L175.05 274L161.18 274L161.18 274L161.18 306.25L161.18 306.25L142.8 306.25L142.8 306.25L142.8 302.12L142.8 302.12L129.31 302.12L129.31 302.12L129.31 346.37L129.31 346.37L142.8 346.37L142.8 346.37L142.8 343.37L142.8 343.37L161.18 343.37zM391.43 361.37L402.3 353.5C 403.05 353 403.05 352.25 402.3 351.25L402.3 351.25L400.05 348.62L400.05 348.62L400.05 338.12C 400.8 329.62 396.43 325.12 386.93 324.62C 386.68 328.12 383.93 330.25 378.68 331L378.68 331L378.3 336.25C 379.3 336.25 380.55 336.12 382.05 335.87C 383.05 335.87 383.8 335.87 384.3 335.87C 386.3 336.12 387.3 337.37 387.3 339.62L387.3 339.62L387.3 348.62L387.3 348.62L380.93 348.62C 380.68 336.62 374.3 327.75 361.8 322L361.8 322L356.55 326.5C 364.05 332.5 367.93 339.87 368.18 348.62L368.18 348.62L361.8 348.62L361.8 348.62L360.3 356.87L360.3 356.87L387.68 356.87zM572.18 359.87C 576.68 358.37 580.68 356.5 584.18 354.25C 585.18 353.5 585.3 352.25 584.55 350.5C 583.55 347.75 582.43 345.62 581.18 344.12C 579.68 342.37 578.43 342.37 577.43 344.12C 575.18 347.87 572.43 351.87 569.18 356.12zM440.18 351.25L440.18 346L440.18 346L475.43 346L475.43 346L475.43 351.25zM440.18 338.12L440.18 332.87L440.18 332.87L475.43 332.87L475.43 332.87L475.43 338.12zM142.8 334.37L142.8 315.25L142.8 315.25L161.18 315.25L161.18 315.25L161.18 334.37zM175.05 334.37L175.05 315.25L175.05 315.25L193.43 315.25L193.43 315.25L193.43 334.37zM381.3 326.12L394.43 317.87L394.43 317.87L391.05 313.75L391.05 313.75L391.05 291.62L391.05 291.62L379.8 291.62C 385.05 290.62 389.93 289.5 394.43 288.25C 396.68 288 397.68 286.5 397.43 283.75C 397.18 280.75 396.55 277.87 395.55 275.12C 394.8 272.62 393.3 272.37 391.05 274.37C 383.55 278.62 373.8 283.25 361.8 288.25C 355.55 281 343.43 276.12 325.43 273.62L325.43 273.62L322.8 279.25C 346.05 284.75 356.93 295.12 355.43 310.37L355.43 310.37L369.68 310.37C 369.43 304.37 368.18 299.12 365.93 294.62C 367.43 294.37 369.55 294 372.3 293.5C 375.3 292.75 377.43 292.25 378.68 292L378.68 292L378.68 313.75L378.68 313.75L344.18 313.75L344.18 313.75L344.18 291.62L344.18 291.62L331.8 291.62L331.8 291.62L331.8 323.5L331.8 323.5L344.18 323.5L344.18 323.5L344.18 321.62L344.18 321.62L377.93 321.62zM521.93 313L521.93 292.37L521.93 292.37L536.18 292.37L536.18 292.37L536.18 313zM257.18 311.5L272.18 311.5C 271.93 309.25 271.43 307.25 270.68 305.5L270.68 305.5L290.18 305.5L290.18 305.5L293.93 310.75L293.93 310.75L304.8 303.25L304.8 303.25L301.05 297.25L301.05 297.25L272.55 297.25C 280.8 291 292.43 287.62 307.43 287.12C 303.93 282.87 301.18 278.37 299.18 273.62C 282.93 275.87 271.43 282.25 264.68 292.75C 258.93 283.5 245.3 277.37 223.8 274.37L223.8 274.37L220.8 280C 237.05 284.75 247.3 290.5 251.55 297.25L251.55 297.25L225.68 297.25L225.68 297.25L224.18 305.5L224.18 305.5L255.68 305.5C 256.43 307.25 256.93 309.25 257.18 311.5z" stroke="#333399" stroke-width="1.8" fill="none" /><g clip-path="url(#3)"></g></g></g></svg>