<svg xmlns="http://www.w3.org/2000/svg" xmlns:xlink="http://www.w3.org/1999/xlink" id="body_5" preserveAspectRatio="xMinYMin meet" viewBox="0 0 960 720"><defs><clipPath id="1"><path id="" clip-rule="evenodd" transform="matrix(1 0 0 1 0 0)" d="M0 540L0 0L0 0L720 0L720 0L720 540L720 540L0 540z" /></clipPath><clipPath id="2"><path id="" clip-rule="evenodd" transform="matrix(1 0 0 1 0 0)" d="M0 539.9999L720 539.9999L720 539.9999L720 -0.0001220703L720 -0.0001220703L0 -0.0001220703z" /></clipPath><clipPath id="3"><path id="" clip-rule="evenodd" transform="matrix(1 0 0 1 0 0)" d="M276.04 492.87L279.48 490.98L279.48 490.98L278.1 490.29C 277.07 488.8 276.1 487.43 275.18 486.16L275.18 486.16L283.95 486.16L283.95 486.16L285.5 487.71L285.5 487.71L287.91 485.3L287.91 485.3L286.53 484.62C 286.42 480.26 286.27 477.51 286.1 476.36C 285.93 475.21 285.53 474.24 284.9 473.43C 284.27 472.63 283.09 472 281.37 471.54C 281.37 472.57 279.82 473.66 276.73 474.81L276.73 474.81L276.9 475.5C 279.42 475.04 281.11 474.78 281.97 474.72C 282.83 474.67 283.41 475.33 283.69 476.7C 283.98 478.08 284.12 480.89 284.12 485.13L284.12 485.13L272.43 485.13L272.43 485.13L272.43 469.82L272.43 469.82L287.22 469.82L287.22 469.82L288.94 471.54L288.94 471.54L291.35 469.13L291.35 469.13L289.97 468.27C 289.86 463.57 289.6 460.22 289.2 458.21C 288.8 456.2 288.17 454.83 287.31 454.08C 286.45 453.34 285.27 452.79 283.78 452.45C 283.89 453.82 282.06 455.08 278.28 456.23L278.28 456.23L278.45 457.09C 281.31 456.52 283.35 456.2 284.55 456.14C 285.76 456.09 286.53 457.23 286.88 459.59C 287.22 461.94 287.45 465 287.56 468.79L287.56 468.79L272.43 468.79L272.43 468.79L271.22 467.41L271.22 467.41L268.99 469.48L268.99 469.48L270.19 470.51C 270.19 479.23 270.13 484.96 270.02 487.71L270.02 487.71L272.43 486.16L272.43 486.16L274.32 486.16C 275.24 488.8 275.81 491.04 276.04 492.87zM435.68 492.7L439.81 490.81L439.81 490.81L438.26 489.6L438.26 489.6L438.26 482.72L438.26 482.72L439.98 482.72L439.98 482.72L441.88 484.62L441.88 484.62L444.8 481.69L444.8 481.69L438.26 481.69L438.26 481.69L438.26 473.78L438.26 473.78L444.11 476.01L444.11 476.01L444.46 475.33L444.46 475.33L438.26 472.06L438.26 472.06L438.26 456.4C 438.03 454.57 436.77 453.31 434.48 452.62C 434.59 453.99 432.87 455.26 429.32 456.4L429.32 456.4L429.32 457.26C 432.3 456.69 434.14 456.46 434.82 456.57C 435.51 456.69 435.86 457.21 435.86 458.12L435.86 458.12L435.86 471.03C 432.64 469.53 430.69 468.33 430.01 467.41L430.01 467.41L427.77 470.51C 429.26 470.74 431.96 471.54 435.86 472.92L435.86 472.92L435.86 481.69L435.86 481.69L431.21 481.69L431.21 481.69L429.15 481.35L429.15 481.35L427.77 482.72L427.77 482.72L435.86 482.72C 435.86 486.51 435.8 489.83 435.68 492.7zM490.39 492.7L495.21 490.81L495.21 490.81L493.14 489.26L493.14 489.26L493.14 476.87L493.14 476.87L495.03 476.87C 498.59 481.46 501.17 485.93 502.78 490.29L502.78 490.29L506.73 487.2L506.73 487.2L504.84 486.51C 501.74 482.72 498.88 479.51 496.24 476.87L496.24 476.87L505.53 476.87L505.53 476.87L508.11 479.28L508.11 479.28L511.55 475.84L511.55 475.84L494.86 475.84C 496.35 472.17 498.7 468.88 501.92 465.95C 505.13 463.03 508.57 461.05 512.24 460.02L512.24 460.02L512.24 459.33C 510.06 459.21 508.68 458.41 508.11 456.92C 505.01 459.1 502.23 461.68 499.77 464.66C 497.3 467.64 495.32 471.37 493.83 475.84L493.83 475.84L493.14 475.84L493.14 475.84L493.14 459.16C 493.14 456.75 493.2 454.85 493.31 453.48L493.31 453.48L490.39 452.1C 490.5 455.54 490.56 462.71 490.56 473.61C 488.27 469.82 485.72 466.52 482.91 463.71C 480.1 460.9 476.51 458.3 472.15 455.89L472.15 455.89L471.81 456.4C 475.59 459.16 478.95 462.25 481.87 465.69C 484.8 469.13 487.01 472.52 488.5 475.84L488.5 475.84L478.35 475.84C 476.86 475.84 475.48 475.67 474.22 475.33L474.22 475.33L472.67 476.87L472.67 476.87L490.56 476.87L490.56 476.87L490.56 487.2C 490.56 489.03 490.5 490.87 490.39 492.7zM230.11 492.53L233.37 490.64L233.37 490.64L231.83 489.6C 234.01 486.62 236.3 484.42 238.71 482.98C 241.12 481.55 244.1 480.54 247.65 479.97L247.65 479.97L247.65 479.28C 245.93 478.94 244.84 478.31 244.38 477.39C 241.06 478.65 238.36 480.32 236.3 482.38C 234.24 484.44 232.63 486.62 231.48 488.92C 229.19 485.02 226.9 482.04 224.6 479.97L224.6 479.97L234.06 479.97L234.06 479.97L235.78 481.69L235.78 481.69L238.54 478.94L238.54 478.94L228.39 478.94L228.39 478.94L225.81 478.42L225.81 478.42L224.43 479.8C 222.02 477.85 219.67 476.3 217.38 475.15L217.38 475.15L217.03 475.67C 219.56 477.28 221.96 479.48 224.26 482.29C 226.55 485.1 228.5 488.52 230.11 492.53zM216.86 492.36L220.64 490.12L220.64 490.12L219.1 489.26C 217.61 486.05 216.34 483.18 215.31 480.66L215.31 480.66L217.2 479.63L217.2 479.63L215.83 478.59L215.83 478.59L215.83 453.31L215.83 453.31L213.42 452.45C 213.53 454.97 213.59 456.75 213.59 457.78L213.59 457.78L213.59 477.22C 211.64 474.35 209.86 472.06 208.26 470.34L208.26 470.34L207.74 470.68C 209.35 473.09 210.95 476.07 212.56 479.63C 214.16 483.18 215.6 487.43 216.86 492.36zM410.22 492.36L414.01 490.47L414.01 490.47L412.63 489.26L412.63 489.26L412.63 481.69L412.63 481.69L418.31 481.69L418.31 481.69L419.34 483.41L419.34 483.41L422.09 481.52L422.09 481.52L420.89 480.32C 420.89 473.89 420.95 469.36 421.06 466.72L421.06 466.72L418.65 465.52L418.65 465.52L418.65 467.93L418.65 467.93L412.63 467.93L412.63 467.93L412.63 457.44C 416.42 457.78 418.94 458.07 420.2 458.3C 419.74 459.44 418.71 461.28 417.1 463.8L417.1 463.8L417.45 464.14C 420.54 461.51 422.44 459.64 423.13 458.55C 423.81 457.46 424.16 456.57 424.16 455.89C 424.16 455.2 423.93 454.51 423.47 453.82C 423.01 453.13 422.67 452.79 422.44 452.79C 422.21 452.79 422.04 453.13 421.92 453.82C 421.58 455.08 421.18 456.23 420.72 457.26C 416.47 456.69 412.34 456 408.33 455.2C 404.32 454.4 401.97 453.59 401.28 452.79L401.28 452.79L399.39 456.23C 400.76 456.23 404.43 456.57 410.4 457.26L410.4 457.26L410.4 467.93L410.4 467.93L404.37 467.93L404.37 467.93L404.37 466.55L404.37 466.55L401.97 465.52C 402.08 467.93 402.14 470.77 402.14 474.04C 402.14 477.3 402.08 480.43 401.97 483.41L401.97 483.41L404.37 481.69L404.37 481.69L410.4 481.69C 410.4 486.16 410.34 489.72 410.22 492.36zM360.33 492.01L364.81 490.29L364.81 490.29L363.6 488.92C 363.6 487.08 363.72 485.02 363.95 482.72L363.95 482.72L373.41 482.72L373.41 482.72L375.82 485.13L375.82 485.13L379.26 481.69L379.26 481.69L363.95 481.69C 364.63 474.12 365.84 468.79 367.56 465.69C 368.48 467.07 369.39 468.85 370.31 471.03C 371.23 473.2 372.15 475.67 373.06 478.42L373.06 478.42L376.68 475.67L376.68 475.67L375.13 474.81C 373.18 470.11 371.17 466.27 369.11 463.28C 371.52 460.42 374.04 458.41 376.68 457.26L376.68 457.26L378.74 464.66L378.74 464.66L379.43 464.49C 378.97 460.93 378.74 458.58 378.74 457.44C 378.74 456.29 379.03 455.2 379.6 454.17C 379.83 453.71 379.72 453.48 379.26 453.48C 378.45 453.48 376.96 453.88 374.78 454.68C 372.61 455.49 370.08 457.66 367.22 461.22C 363.66 457.55 359.76 454.8 355.52 452.96L355.52 452.96L355.35 453.65C 359.93 456.63 363.43 459.79 365.84 463.11C 363.55 467.36 362.05 473.55 361.37 481.69L361.37 481.69L347.78 481.69L347.78 481.69L347.6 473.43L347.6 473.43L355.52 473.43L355.52 473.43L357.07 475.15L357.07 475.15L359.65 472.75L359.65 472.75L358.1 471.54C 357.75 464.66 357.29 460.68 356.72 459.59C 356.15 458.5 355.06 457.61 353.45 456.92C 353.11 458.52 351.56 459.84 348.81 460.88L348.81 460.88L348.81 461.56C 350.99 461.22 352.51 460.99 353.37 460.88C 354.23 460.76 354.77 461.25 355 462.34C 355.23 463.43 355.46 466.78 355.69 472.4L355.69 472.4L347.6 472.4C 347.26 462.88 344.85 456.23 340.38 452.45L340.38 452.45L340.03 452.96C 343.02 457.21 344.59 461.76 344.77 466.64C 344.94 471.51 345.02 475.21 345.02 477.73C 345.02 480.26 344.97 482.44 344.85 484.27L344.85 484.27L347.95 482.72L347.95 482.72L361.19 482.72C 360.85 486.51 360.56 489.6 360.33 492.01zM331.95 491.84L335.56 488.23L335.56 488.23L319.22 488.23C 318.19 486.28 317.04 483.99 315.78 481.35L315.78 481.35L318.7 479.63L318.7 479.63L317.15 478.42L317.15 478.42L317.15 461.91C 317.15 458.47 317.21 455.83 317.33 453.99L317.33 453.99L314.4 452.79C 314.52 457.15 314.57 460.93 314.57 464.14L314.57 464.14L314.57 479.28C 309.99 472.29 304.02 466.67 296.68 462.42L296.68 462.42L296.34 463.11C 300.12 465.86 303.76 469.33 307.26 473.52C 310.76 477.71 313.6 482.61 315.78 488.23L315.78 488.23L302.36 488.23C 300.87 488.23 299.49 488.06 298.23 487.71L298.23 487.71L296.68 489.26L296.68 489.26L329.37 489.26zM367.73 491.5C 370.14 490.12 371.75 489.06 372.55 488.31C 373.35 487.57 373.67 486.82 373.49 486.08C 373.32 485.33 373.01 484.82 372.55 484.53C 372.09 484.24 371.8 484.1 371.69 484.1C 371.23 484.1 370.89 484.56 370.66 485.48C 370.31 486.74 369.16 488.57 367.22 490.98zM389.92 491.5L393.71 489.6L393.71 489.6L392.5 488.57C 391.82 487.43 390.9 485.42 389.75 482.55L389.75 482.55L396.8 482.55L396.8 482.55L398.18 484.27L398.18 484.27L401.28 481.35C 399.56 481.12 397.49 479 395.08 474.98L395.08 474.98L394.57 475.33L394.57 475.33L397.15 481.52L397.15 481.52L389.41 481.52C 387.69 477.85 385.91 474.92 384.07 472.75L384.07 472.75L383.56 473.09C 385.16 475.84 386.51 479.05 387.6 482.72C 388.69 486.39 389.46 489.32 389.92 491.5zM463.72 489.26L466.13 486.85L466.13 486.85L464.58 485.82C 464.58 478.71 464.64 474.35 464.76 472.75L464.76 472.75L462.18 471.89L462.18 471.89L462.18 473.78L462.18 473.78L447.55 473.78L447.55 473.78L447.55 458.47C 447.55 456.86 448.41 456.06 450.13 456.06L450.13 456.06L462.86 456.06C 463.9 456.06 464.53 456.72 464.76 458.04C 464.99 459.36 465.1 461.45 465.1 464.32L465.1 464.32L465.96 464.32C 466.08 461.68 466.28 459.87 466.56 458.9C 466.85 457.92 467.45 457.21 468.37 456.75C 467.57 455.26 466.68 454.42 465.7 454.25C 464.73 454.08 463.55 453.99 462.18 453.99L462.18 453.99L448.93 453.99C 446.41 453.99 445.15 455.37 445.15 458.12L445.15 458.12L445.15 482.55C 445.15 484.5 445.09 486.68 444.97 489.09L444.97 489.09L447.9 487.54L447.9 487.54L462 487.54zM478.69 489.09C 482.13 486.57 484.11 484.87 484.63 484.01C 485.14 483.15 485.34 482.29 485.23 481.43C 485.11 480.57 484.83 479.91 484.37 479.46C 483.91 479 483.57 478.77 483.34 478.77C 482.88 478.77 482.42 479.63 481.96 481.35C 481.27 483.64 480.01 486.05 478.18 488.57zM265.54 487.37L268.3 484.62L268.3 484.62L266.58 483.58C 265.2 478.42 263.71 473.95 262.1 470.17C 263.82 467.64 264.94 465.66 265.46 464.23C 265.97 462.8 266.23 461.62 266.23 460.7C 266.23 459.79 266.03 459.07 265.63 458.55C 265.23 458.04 264.91 457.78 264.68 457.78C 264.23 457.78 263.88 458.7 263.65 460.53C 263.19 462.94 262.33 465.46 261.07 468.1C 258.43 463.28 255.39 458.93 251.95 455.03L251.95 455.03L251.44 455.54C 254.88 460.47 257.69 465.35 259.87 470.17C 258.38 473.03 256.48 476.3 254.19 479.97L254.19 479.97L254.71 480.32C 257 477.45 259.01 474.75 260.73 472.23C 261.87 475.33 262.96 479.46 264 484.62L264 484.62L258.15 484.62C 256.66 484.62 255.28 484.44 254.02 484.1L254.02 484.1L252.47 485.65L252.47 485.65L263.82 485.65zM447.55 486.51L447.55 474.81L447.55 474.81L453.75 474.81L453.75 474.81L453.75 486.51zM455.98 486.51L455.98 474.81L455.98 474.81L462.18 474.81L462.18 474.81L462.18 486.51zM275.69 483.58C 278.22 482.21 279.74 481.2 280.25 480.57C 280.77 479.94 281.03 479.46 281.03 479.11C 281.03 478.65 280.83 478.14 280.43 477.56C 280.02 476.99 279.71 476.7 279.48 476.7C 279.14 476.7 278.79 477.22 278.45 478.25C 277.87 479.86 276.78 481.46 275.18 483.07zM404.37 480.66L404.37 468.96L404.37 468.96L410.4 468.96L410.4 468.96L410.4 480.66zM412.63 480.66L412.63 468.96L412.63 468.96L418.65 468.96L418.65 468.96L418.65 480.66zM321.28 478.42C 328.62 473.61 332.67 470.62 333.41 469.48C 334.16 468.33 334.53 467.41 334.53 466.72C 334.53 466.27 334.36 465.72 334.01 465.09C 333.67 464.46 333.38 464.14 333.15 464.14C 332.69 464.14 332.01 465.06 331.09 466.9C 329.71 469.31 326.27 472.98 320.77 477.91zM230.45 476.87L232.86 474.98L232.86 474.98L231.65 473.95L231.65 473.95L231.65 455.89C 231.65 454.05 230.68 452.9 228.73 452.45C 228.73 453.59 227.58 454.51 225.29 455.2L225.29 455.2L225.29 455.71C 226.67 455.49 227.73 455.37 228.47 455.37C 229.22 455.37 229.53 455.77 229.42 456.57L229.42 456.57L229.42 462.94L229.42 462.94L223.4 462.94L223.4 462.94L223.4 453.82L223.4 453.82L220.99 452.62C 221.1 454.91 221.16 456.69 221.16 457.95L221.16 457.95L221.16 472.06C 221.16 473.43 221.1 474.98 220.99 476.7L220.99 476.7L223.4 475.33L223.4 475.33L229.25 475.33zM240.43 476.87L244.21 474.98L244.21 474.98L242.84 473.95L242.84 473.95L242.84 456.4C 242.95 454.34 241.8 452.96 239.4 452.27C 239.51 453.54 238.08 454.63 235.1 455.54L235.1 455.54L235.1 456.23C 237.04 456 238.45 455.89 239.31 455.89C 240.17 455.89 240.6 456.29 240.6 457.09L240.6 457.09L240.6 472.75C 240.6 474.01 240.54 475.38 240.43 476.87zM389.92 476.7L393.71 474.98L393.71 474.98L392.33 473.78L392.33 473.78L392.33 458.47L392.33 458.47L399.9 464.32L399.9 464.32L400.25 463.8C 395.08 458.64 392.27 455.37 391.82 453.99L391.82 453.99L389.41 456.75C 389.87 457.32 390.1 458.18 390.1 459.33L390.1 459.33L390.1 472.57C 390.1 473.72 390.04 475.1 389.92 476.7zM223.4 474.29L223.4 469.65L223.4 469.65L229.42 469.65L229.42 469.65L229.42 474.29zM234.75 474.29L238.02 472.92L238.02 472.92L236.99 471.71L236.99 471.71L236.99 464.66C 236.99 463.05 237.04 461.22 237.16 459.16L237.16 459.16L234.75 458.47C 234.87 460.3 234.92 461.74 234.92 462.77L234.92 462.77L234.92 470.51C 234.92 471.2 234.87 472.46 234.75 474.29zM223.4 468.62L223.4 463.97L223.4 463.97L229.42 463.97L229.42 463.97L229.42 468.62zM282.58 465.69L285.67 462.6L285.67 462.6L272.94 462.6C 271.45 462.6 270.07 462.42 268.81 462.08L268.81 462.08L267.27 463.63L267.27 463.63L280.51 463.63z" /></clipPath><linearGradient gradientUnits="userSpaceOnUse" transform="matrix(1 0 0 1 0 0)" id="13459" x1="360" y1="499.77" x2="360" y2="446.97"><stop stop-color="#000000" offset="0%" /><stop stop-color="#191919" offset="1%" /><stop stop-color="#333333" offset="2%" /><stop stop-color="#4C4C4C" offset="3%" /><stop stop-color="#666666" offset="4%" /><stop stop-color="#676767" offset="5%" /><stop stop-color="#686868" offset="6%" /><stop stop-color="#6A6A6A" offset="7%" /><stop stop-color="#6B6B6B" offset="8%" /><stop stop-color="#6C6C6C" offset="9%" /><stop stop-color="#6D6D6D" offset="10%" /><stop stop-color="#6F6F6F" offset="11%" /><stop stop-color="#707070" offset="12%" /><stop stop-color="#717171" offset="13%" /><stop stop-color="#727272" offset="14%" /><stop stop-color="#747474" offset="15%" /><stop stop-color="#757575" offset="16%" /><stop stop-color="#767676" offset="17%" /><stop stop-color="#777777" offset="18%" /><stop stop-color="#787878" offset="19%" /><stop stop-color="#7A7A7A" offset="20%" /><stop stop-color="#7B7B7B" offset="21%" /><stop stop-color="#7C7C7C" offset="22%" /><stop stop-color="#7D7D7D" offset="23%" /><stop stop-color="#7F7F7F" offset="24%" /><stop stop-color="#808080" offset="25%" /><stop stop-color="#818181" offset="26%" /><stop stop-color="#828282" offset="27%" /><stop stop-color="#838383" offset="28%" /><stop stop-color="#858585" offset="29%" /><stop stop-color="#868686" offset="30%" /><stop stop-color="#878787" offset="31%" /><stop stop-color="#888888" offset="32%" /><stop stop-color="#8A8A8A" offset="33%" /><stop stop-color="#8B8B8B" offset="34%" /><stop stop-color="#8C8C8C" offset="35%" /><stop stop-color="#8D8D8D" offset="36%" /><stop stop-color="#8F8F8F" offset="37%" /><stop stop-color="#909090" offset="38%" /><stop stop-color="#919191" offset="39%" /><stop stop-color="#929292" offset="40%" /><stop stop-color="#939393" offset="41%" /><stop stop-color="#959595" offset="42%" /><stop stop-color="#969696" offset="43%" /><stop stop-color="#979797" offset="44%" /><stop stop-color="#989898" offset="45%" /><stop stop-color="#9A9A9A" offset="46%" /><stop stop-color="#9B9B9B" offset="47%" /><stop stop-color="#9C9C9C" offset="48%" /><stop stop-color="#9D9D9D" offset="49%" /><stop stop-color="#9F9F9F" offset="50%" /><stop stop-color="#A0A0A0" offset="51%" /><stop stop-color="#A1A1A1" offset="52%" /><stop stop-color="#A2A2A2" offset="53%" /><stop stop-color="#A3A3A3" offset="54%" /><stop stop-color="#A5A5A5" offset="55%" /><stop stop-color="#A6A6A6" offset="56%" /><stop stop-color="#A7A7A7" offset="57%" /><stop stop-color="#A8A8A8" offset="58%" /><stop stop-color="#AAAAAA" offset="59%" /><stop stop-color="#ABABAB" offset="60%" /><stop stop-color="#ACACAC" offset="61%" /><stop stop-color="#ADADAD" offset="62%" /><stop stop-color="#AFAFAF" offset="63%" /><stop stop-color="#B0B0B0" offset="64%" /><stop stop-color="#B1B1B1" offset="65%" /><stop stop-color="#B2B2B2" offset="66%" /><stop stop-color="#B3B3B3" offset="67%" /><stop stop-color="#B5B5B5" offset="68%" /><stop stop-color="#B6B6B6" offset="69%" /><stop stop-color="#B7B7B7" offset="70%" /><stop stop-color="#B8B8B8" offset="71%" /><stop stop-color="#BABABA" offset="72%" /><stop stop-color="#BBBBBB" offset="73%" /><stop stop-color="#BCBCBC" offset="74%" /><stop stop-color="#BDBDBD" offset="75%" /><stop stop-color="#BEBEBE" offset="76%" /><stop stop-color="#C0C0C0" offset="77%" /><stop stop-color="#C1C1C1" offset="78%" /><stop stop-color="#C2C2C2" offset="79%" /><stop stop-color="#C3C3C3" offset="80%" /><stop stop-color="#C5C5C5" offset="81%" /><stop stop-color="#C6C6C6" offset="82%" /><stop stop-color="#C7C7C7" offset="83%" /><stop stop-color="#C8C8C8" offset="84%" /><stop stop-color="#CACACA" offset="85%" /><stop stop-color="#CBCBCB" offset="86%" /><stop stop-color="#CCCCCC" offset="87%" /><stop stop-color="#CCCCCC" offset="88%" /><stop stop-color="#CCCCCC" offset="89%" /><stop stop-color="#CCCCCC" offset="90%" /><stop stop-color="#CCCCCC" offset="91%" /><stop stop-color="#CCCCCC" offset="92%" /><stop stop-color="#CCCCCC" offset="93%" /><stop stop-color="#CCCCCC" offset="94%" /><stop stop-color="#CCCCCC" offset="95%" /><stop stop-color="#CCCCCC" offset="96%" /><stop stop-color="#CCCCCC" offset="97%" /><stop stop-color="#CCCCCC" offset="98%" /><stop stop-color="#CCCCCC" offset="99%" /><stop stop-color="#CCCCCC" offset="100%" /></linearGradient><clipPath id="4"><path id="" clip-rule="evenodd" transform="matrix(1 0 0 1 0 0)" d="M276.04 492.87L279.48 490.98L279.48 490.98L278.1 490.29C 277.07 488.8 276.1 487.43 275.18 486.16L275.18 486.16L283.95 486.16L283.95 486.16L285.5 487.71L285.5 487.71L287.91 485.3L287.91 485.3L286.53 484.62C 286.42 480.26 286.27 477.51 286.1 476.36C 285.93 475.21 285.53 474.24 284.9 473.43C 284.27 472.63 283.09 472 281.37 471.54C 281.37 472.57 279.82 473.66 276.73 474.81L276.73 474.81L276.9 475.5C 279.42 475.04 281.11 474.78 281.97 474.72C 282.83 474.67 283.41 475.33 283.69 476.7C 283.98 478.08 284.12 480.89 284.12 485.13L284.12 485.13L272.43 485.13L272.43 485.13L272.43 469.82L272.43 469.82L287.22 469.82L287.22 469.82L288.94 471.54L288.94 471.54L291.35 469.13L291.35 469.13L289.97 468.27C 289.86 463.57 289.6 460.22 289.2 458.21C 288.8 456.2 288.17 454.83 287.31 454.08C 286.45 453.34 285.27 452.79 283.78 452.45C 283.89 453.82 282.06 455.08 278.28 456.23L278.28 456.23L278.45 457.09C 281.31 456.52 283.35 456.2 284.55 456.14C 285.76 456.09 286.53 457.23 286.88 459.59C 287.22 461.94 287.45 465 287.56 468.79L287.56 468.79L272.43 468.79L272.43 468.79L271.22 467.41L271.22 467.41L268.99 469.48L268.99 469.48L270.19 470.51C 270.19 479.23 270.13 484.96 270.02 487.71L270.02 487.71L272.43 486.16L272.43 486.16L274.32 486.16C 275.24 488.8 275.81 491.04 276.04 492.87zM435.68 492.7L439.81 490.81L439.81 490.81L438.26 489.6L438.26 489.6L438.26 482.72L438.26 482.72L439.98 482.72L439.98 482.72L441.88 484.62L441.88 484.62L444.8 481.69L444.8 481.69L438.26 481.69L438.26 481.69L438.26 473.78L438.26 473.78L444.11 476.01L444.11 476.01L444.46 475.33L444.46 475.33L438.26 472.06L438.26 472.06L438.26 456.4C 438.03 454.57 436.77 453.31 434.48 452.62C 434.59 453.99 432.87 455.26 429.32 456.4L429.32 456.4L429.32 457.26C 432.3 456.69 434.14 456.46 434.82 456.57C 435.51 456.69 435.86 457.21 435.86 458.12L435.86 458.12L435.86 471.03C 432.64 469.53 430.69 468.33 430.01 467.41L430.01 467.41L427.77 470.51C 429.26 470.74 431.96 471.54 435.86 472.92L435.86 472.92L435.86 481.69L435.86 481.69L431.21 481.69L431.21 481.69L429.15 481.35L429.15 481.35L427.77 482.72L427.77 482.72L435.86 482.72C 435.86 486.51 435.8 489.83 435.68 492.7zM490.39 492.7L495.21 490.81L495.21 490.81L493.14 489.26L493.14 489.26L493.14 476.87L493.14 476.87L495.03 476.87C 498.59 481.46 501.17 485.93 502.78 490.29L502.78 490.29L506.73 487.2L506.73 487.2L504.84 486.51C 501.74 482.72 498.88 479.51 496.24 476.87L496.24 476.87L505.53 476.87L505.53 476.87L508.11 479.28L508.11 479.28L511.55 475.84L511.55 475.84L494.86 475.84C 496.35 472.17 498.7 468.88 501.92 465.95C 505.13 463.03 508.57 461.05 512.24 460.02L512.24 460.02L512.24 459.33C 510.06 459.21 508.68 458.41 508.11 456.92C 505.01 459.1 502.23 461.68 499.77 464.66C 497.3 467.64 495.32 471.37 493.83 475.84L493.83 475.84L493.14 475.84L493.14 475.84L493.14 459.16C 493.14 456.75 493.2 454.85 493.31 453.48L493.31 453.48L490.39 452.1C 490.5 455.54 490.56 462.71 490.56 473.61C 488.27 469.82 485.72 466.52 482.91 463.71C 480.1 460.9 476.51 458.3 472.15 455.89L472.15 455.89L471.81 456.4C 475.59 459.16 478.95 462.25 481.87 465.69C 484.8 469.13 487.01 472.52 488.5 475.84L488.5 475.84L478.35 475.84C 476.86 475.84 475.48 475.67 474.22 475.33L474.22 475.33L472.67 476.87L472.67 476.87L490.56 476.87L490.56 476.87L490.56 487.2C 490.56 489.03 490.5 490.87 490.39 492.7zM230.11 492.53L233.37 490.64L233.37 490.64L231.83 489.6C 234.01 486.62 236.3 484.42 238.71 482.98C 241.12 481.55 244.1 480.54 247.65 479.97L247.65 479.97L247.65 479.28C 245.93 478.94 244.84 478.31 244.38 477.39C 241.06 478.65 238.36 480.32 236.3 482.38C 234.24 484.44 232.63 486.62 231.48 488.92C 229.19 485.02 226.9 482.04 224.6 479.97L224.6 479.97L234.06 479.97L234.06 479.97L235.78 481.69L235.78 481.69L238.54 478.94L238.54 478.94L228.39 478.94L228.39 478.94L225.81 478.42L225.81 478.42L224.43 479.8C 222.02 477.85 219.67 476.3 217.38 475.15L217.38 475.15L217.03 475.67C 219.56 477.28 221.96 479.48 224.26 482.29C 226.55 485.1 228.5 488.52 230.11 492.53zM216.86 492.36L220.64 490.12L220.64 490.12L219.1 489.26C 217.61 486.05 216.34 483.18 215.31 480.66L215.31 480.66L217.2 479.63L217.2 479.63L215.83 478.59L215.83 478.59L215.83 453.31L215.83 453.31L213.42 452.45C 213.53 454.97 213.59 456.75 213.59 457.78L213.59 457.78L213.59 477.22C 211.64 474.35 209.86 472.06 208.26 470.34L208.26 470.34L207.74 470.68C 209.35 473.09 210.95 476.07 212.56 479.63C 214.16 483.18 215.6 487.43 216.86 492.36zM410.22 492.36L414.01 490.47L414.01 490.47L412.63 489.26L412.63 489.26L412.63 481.69L412.63 481.69L418.31 481.69L418.31 481.69L419.34 483.41L419.34 483.41L422.09 481.52L422.09 481.52L420.89 480.32C 420.89 473.89 420.95 469.36 421.06 466.72L421.06 466.72L418.65 465.52L418.65 465.52L418.65 467.93L418.65 467.93L412.63 467.93L412.63 467.93L412.63 457.44C 416.42 457.78 418.94 458.07 420.2 458.3C 419.74 459.44 418.71 461.28 417.1 463.8L417.1 463.8L417.45 464.14C 420.54 461.51 422.44 459.64 423.13 458.55C 423.81 457.46 424.16 456.57 424.16 455.89C 424.16 455.2 423.93 454.51 423.47 453.82C 423.01 453.13 422.67 452.79 422.44 452.79C 422.21 452.79 422.04 453.13 421.92 453.82C 421.58 455.08 421.18 456.23 420.72 457.26C 416.47 456.69 412.34 456 408.33 455.2C 404.32 454.4 401.97 453.59 401.28 452.79L401.28 452.79L399.39 456.23C 400.76 456.23 404.43 456.57 410.4 457.26L410.4 457.26L410.4 467.93L410.4 467.93L404.37 467.93L404.37 467.93L404.37 466.55L404.37 466.55L401.97 465.52C 402.08 467.93 402.14 470.77 402.14 474.04C 402.14 477.3 402.08 480.43 401.97 483.41L401.97 483.41L404.37 481.69L404.37 481.69L410.4 481.69C 410.4 486.16 410.34 489.72 410.22 492.36zM360.33 492.01L364.81 490.29L364.81 490.29L363.6 488.92C 363.6 487.08 363.72 485.02 363.95 482.72L363.95 482.72L373.41 482.72L373.41 482.72L375.82 485.13L375.82 485.13L379.26 481.69L379.26 481.69L363.95 481.69C 364.63 474.12 365.84 468.79 367.56 465.69C 368.48 467.07 369.39 468.85 370.31 471.03C 371.23 473.2 372.15 475.67 373.06 478.42L373.06 478.42L376.68 475.67L376.68 475.67L375.13 474.81C 373.18 470.11 371.17 466.27 369.11 463.28C 371.52 460.42 374.04 458.41 376.68 457.26L376.68 457.26L378.74 464.66L378.74 464.66L379.43 464.49C 378.97 460.93 378.74 458.58 378.74 457.44C 378.74 456.29 379.03 455.2 379.6 454.17C 379.83 453.71 379.72 453.48 379.26 453.48C 378.45 453.48 376.96 453.88 374.78 454.68C 372.61 455.49 370.08 457.66 367.22 461.22C 363.66 457.55 359.76 454.8 355.52 452.96L355.52 452.96L355.35 453.65C 359.93 456.63 363.43 459.79 365.84 463.11C 363.55 467.36 362.05 473.55 361.37 481.69L361.37 481.69L347.78 481.69L347.78 481.69L347.6 473.43L347.6 473.43L355.52 473.43L355.52 473.43L357.07 475.15L357.07 475.15L359.65 472.75L359.65 472.75L358.1 471.54C 357.75 464.66 357.29 460.68 356.72 459.59C 356.15 458.5 355.06 457.61 353.45 456.92C 353.11 458.52 351.56 459.84 348.81 460.88L348.81 460.88L348.81 461.56C 350.99 461.22 352.51 460.99 353.37 460.88C 354.23 460.76 354.77 461.25 355 462.34C 355.23 463.43 355.46 466.78 355.69 472.4L355.69 472.4L347.6 472.4C 347.26 462.88 344.85 456.23 340.38 452.45L340.38 452.45L340.03 452.96C 343.02 457.21 344.59 461.76 344.77 466.64C 344.94 471.51 345.02 475.21 345.02 477.73C 345.02 480.26 344.97 482.44 344.85 484.27L344.85 484.27L347.95 482.72L347.95 482.72L361.19 482.72C 360.85 486.51 360.56 489.6 360.33 492.01zM331.95 491.84L335.56 488.23L335.56 488.23L319.22 488.23C 318.19 486.28 317.04 483.99 315.78 481.35L315.78 481.35L318.7 479.63L318.7 479.63L317.15 478.42L317.15 478.42L317.15 461.91C 317.15 458.47 317.21 455.83 317.33 453.99L317.33 453.99L314.4 452.79C 314.52 457.15 314.57 460.93 314.57 464.14L314.57 464.14L314.57 479.28C 309.99 472.29 304.02 466.67 296.68 462.42L296.68 462.42L296.34 463.11C 300.12 465.86 303.76 469.33 307.26 473.52C 310.76 477.71 313.6 482.61 315.78 488.23L315.78 488.23L302.36 488.23C 300.87 488.23 299.49 488.06 298.23 487.71L298.23 487.71L296.68 489.26L296.68 489.26L329.37 489.26zM367.73 491.5C 370.14 490.12 371.75 489.06 372.55 488.31C 373.35 487.57 373.67 486.82 373.49 486.08C 373.32 485.33 373.01 484.82 372.55 484.53C 372.09 484.24 371.8 484.1 371.69 484.1C 371.23 484.1 370.89 484.56 370.66 485.48C 370.31 486.74 369.16 488.57 367.22 490.98zM389.92 491.5L393.71 489.6L393.71 489.6L392.5 488.57C 391.82 487.43 390.9 485.42 389.75 482.55L389.75 482.55L396.8 482.55L396.8 482.55L398.18 484.27L398.18 484.27L401.28 481.35C 399.56 481.12 397.49 479 395.08 474.98L395.08 474.98L394.57 475.33L394.57 475.33L397.15 481.52L397.15 481.52L389.41 481.52C 387.69 477.85 385.91 474.92 384.07 472.75L384.07 472.75L383.56 473.09C 385.16 475.84 386.51 479.05 387.6 482.72C 388.69 486.39 389.46 489.32 389.92 491.5zM463.72 489.26L466.13 486.85L466.13 486.85L464.58 485.82C 464.58 478.71 464.64 474.35 464.76 472.75L464.76 472.75L462.18 471.89L462.18 471.89L462.18 473.78L462.18 473.78L447.55 473.78L447.55 473.78L447.55 458.47C 447.55 456.86 448.41 456.06 450.13 456.06L450.13 456.06L462.86 456.06C 463.9 456.06 464.53 456.72 464.76 458.04C 464.99 459.36 465.1 461.45 465.1 464.32L465.1 464.32L465.96 464.32C 466.08 461.68 466.28 459.87 466.56 458.9C 466.85 457.92 467.45 457.21 468.37 456.75C 467.57 455.26 466.68 454.42 465.7 454.25C 464.73 454.08 463.55 453.99 462.18 453.99L462.18 453.99L448.93 453.99C 446.41 453.99 445.15 455.37 445.15 458.12L445.15 458.12L445.15 482.55C 445.15 484.5 445.09 486.68 444.97 489.09L444.97 489.09L447.9 487.54L447.9 487.54L462 487.54zM478.69 489.09C 482.13 486.57 484.11 484.87 484.63 484.01C 485.14 483.15 485.34 482.29 485.23 481.43C 485.11 480.57 484.83 479.91 484.37 479.46C 483.91 479 483.57 478.77 483.34 478.77C 482.88 478.77 482.42 479.63 481.96 481.35C 481.27 483.64 480.01 486.05 478.18 488.57zM265.54 487.37L268.3 484.62L268.3 484.62L266.58 483.58C 265.2 478.42 263.71 473.95 262.1 470.17C 263.82 467.64 264.94 465.66 265.46 464.23C 265.97 462.8 266.23 461.62 266.23 460.7C 266.23 459.79 266.03 459.07 265.63 458.55C 265.23 458.04 264.91 457.78 264.68 457.78C 264.23 457.78 263.88 458.7 263.65 460.53C 263.19 462.94 262.33 465.46 261.07 468.1C 258.43 463.28 255.39 458.93 251.95 455.03L251.95 455.03L251.44 455.54C 254.88 460.47 257.69 465.35 259.87 470.17C 258.38 473.03 256.48 476.3 254.19 479.97L254.19 479.97L254.71 480.32C 257 477.45 259.01 474.75 260.73 472.23C 261.87 475.33 262.96 479.46 264 484.62L264 484.62L258.15 484.62C 256.66 484.62 255.28 484.44 254.02 484.1L254.02 484.1L252.47 485.65L252.47 485.65L263.82 485.65zM447.55 486.51L447.55 474.81L447.55 474.81L453.75 474.81L453.75 474.81L453.75 486.51zM455.98 486.51L455.98 474.81L455.98 474.81L462.18 474.81L462.18 474.81L462.18 486.51zM275.69 483.58C 278.22 482.21 279.74 481.2 280.25 480.57C 280.77 479.94 281.03 479.46 281.03 479.11C 281.03 478.65 280.83 478.14 280.43 477.56C 280.02 476.99 279.71 476.7 279.48 476.7C 279.14 476.7 278.79 477.22 278.45 478.25C 277.87 479.86 276.78 481.46 275.18 483.07zM404.37 480.66L404.37 468.96L404.37 468.96L410.4 468.96L410.4 468.96L410.4 480.66zM412.63 480.66L412.63 468.96L412.63 468.96L418.65 468.96L418.65 468.96L418.65 480.66zM321.28 478.42C 328.62 473.61 332.67 470.62 333.41 469.48C 334.16 468.33 334.53 467.41 334.53 466.72C 334.53 466.27 334.36 465.72 334.01 465.09C 333.67 464.46 333.38 464.14 333.15 464.14C 332.69 464.14 332.01 465.06 331.09 466.9C 329.71 469.31 326.27 472.98 320.77 477.91zM230.45 476.87L232.86 474.98L232.86 474.98L231.65 473.95L231.65 473.95L231.65 455.89C 231.65 454.05 230.68 452.9 228.73 452.45C 228.73 453.59 227.58 454.51 225.29 455.2L225.29 455.2L225.29 455.71C 226.67 455.49 227.73 455.37 228.47 455.37C 229.22 455.37 229.53 455.77 229.42 456.57L229.42 456.57L229.42 462.94L229.42 462.94L223.4 462.94L223.4 462.94L223.4 453.82L223.4 453.82L220.99 452.62C 221.1 454.91 221.16 456.69 221.16 457.95L221.16 457.95L221.16 472.06C 221.16 473.43 221.1 474.98 220.99 476.7L220.99 476.7L223.4 475.33L223.4 475.33L229.25 475.33zM240.43 476.87L244.21 474.98L244.21 474.98L242.84 473.95L242.84 473.95L242.84 456.4C 242.95 454.34 241.8 452.96 239.4 452.27C 239.51 453.54 238.08 454.63 235.1 455.54L235.1 455.54L235.1 456.23C 237.04 456 238.45 455.89 239.31 455.89C 240.17 455.89 240.6 456.29 240.6 457.09L240.6 457.09L240.6 472.75C 240.6 474.01 240.54 475.38 240.43 476.87zM389.92 476.7L393.71 474.98L393.71 474.98L392.33 473.78L392.33 473.78L392.33 458.47L392.33 458.47L399.9 464.32L399.9 464.32L400.25 463.8C 395.08 458.64 392.27 455.37 391.82 453.99L391.82 453.99L389.41 456.75C 389.87 457.32 390.1 458.18 390.1 459.33L390.1 459.33L390.1 472.57C 390.1 473.72 390.04 475.1 389.92 476.7zM223.4 474.29L223.4 469.65L223.4 469.65L229.42 469.65L229.42 469.65L229.42 474.29zM234.75 474.29L238.02 472.92L238.02 472.92L236.99 471.71L236.99 471.71L236.99 464.66C 236.99 463.05 237.04 461.22 237.16 459.16L237.16 459.16L234.75 458.47C 234.87 460.3 234.92 461.74 234.92 462.77L234.92 462.77L234.92 470.51C 234.92 471.2 234.87 472.46 234.75 474.29zM223.4 468.62L223.4 463.97L223.4 463.97L229.42 463.97L229.42 463.97L229.42 468.62zM282.58 465.69L285.67 462.6L285.67 462.6L272.94 462.6C 271.45 462.6 270.07 462.42 268.81 462.08L268.81 462.08L267.27 463.63L267.27 463.63L280.51 463.63z" /></clipPath><clipPath id="5"><path id="" clip-rule="evenodd" transform="matrix(1 0 0 1 0 0)" d="M276.04 492.87L279.48 490.98L279.48 490.98L278.1 490.29C 277.07 488.8 276.1 487.43 275.18 486.16L275.18 486.16L283.95 486.16L283.95 486.16L285.5 487.71L285.5 487.71L287.91 485.3L287.91 485.3L286.53 484.62C 286.42 480.26 286.27 477.51 286.1 476.36C 285.93 475.21 285.53 474.24 284.9 473.43C 284.27 472.63 283.09 472 281.37 471.54C 281.37 472.57 279.82 473.66 276.73 474.81L276.73 474.81L276.9 475.5C 279.42 475.04 281.11 474.78 281.97 474.72C 282.83 474.67 283.41 475.33 283.69 476.7C 283.98 478.08 284.12 480.89 284.12 485.13L284.12 485.13L272.43 485.13L272.43 485.13L272.43 469.82L272.43 469.82L287.22 469.82L287.22 469.82L288.94 471.54L288.94 471.54L291.35 469.13L291.35 469.13L289.97 468.27C 289.86 463.57 289.6 460.22 289.2 458.21C 288.8 456.2 288.17 454.83 287.31 454.08C 286.45 453.34 285.27 452.79 283.78 452.45C 283.89 453.82 282.06 455.08 278.28 456.23L278.28 456.23L278.45 457.09C 281.31 456.52 283.35 456.2 284.55 456.14C 285.76 456.09 286.53 457.23 286.88 459.59C 287.22 461.94 287.45 465 287.56 468.79L287.56 468.79L272.43 468.79L272.43 468.79L271.22 467.41L271.22 467.41L268.99 469.48L268.99 469.48L270.19 470.51C 270.19 479.23 270.13 484.96 270.02 487.71L270.02 487.71L272.43 486.16L272.43 486.16L274.32 486.16C 275.24 488.8 275.81 491.04 276.04 492.87zM435.68 492.7L439.81 490.81L439.81 490.81L438.26 489.6L438.26 489.6L438.26 482.72L438.26 482.72L439.98 482.72L439.98 482.72L441.88 484.62L441.88 484.62L444.8 481.69L444.8 481.69L438.26 481.69L438.26 481.69L438.26 473.78L438.26 473.78L444.11 476.01L444.11 476.01L444.46 475.33L444.46 475.33L438.26 472.06L438.26 472.06L438.26 456.4C 438.03 454.57 436.77 453.31 434.48 452.62C 434.59 453.99 432.87 455.26 429.32 456.4L429.32 456.4L429.32 457.26C 432.3 456.69 434.14 456.46 434.82 456.57C 435.51 456.69 435.86 457.21 435.86 458.12L435.86 458.12L435.86 471.03C 432.64 469.53 430.69 468.33 430.01 467.41L430.01 467.41L427.77 470.51C 429.26 470.74 431.96 471.54 435.86 472.92L435.86 472.92L435.86 481.69L435.86 481.69L431.21 481.69L431.21 481.69L429.15 481.35L429.15 481.35L427.77 482.72L427.77 482.72L435.86 482.72C 435.86 486.51 435.8 489.83 435.68 492.7zM490.39 492.7L495.21 490.81L495.21 490.81L493.14 489.26L493.14 489.26L493.14 476.87L493.14 476.87L495.03 476.87C 498.59 481.46 501.17 485.93 502.78 490.29L502.78 490.29L506.73 487.2L506.73 487.2L504.84 486.51C 501.74 482.72 498.88 479.51 496.24 476.87L496.24 476.87L505.53 476.87L505.53 476.87L508.11 479.28L508.11 479.28L511.55 475.84L511.55 475.84L494.86 475.84C 496.35 472.17 498.7 468.88 501.92 465.95C 505.13 463.03 508.57 461.05 512.24 460.02L512.24 460.02L512.24 459.33C 510.06 459.21 508.68 458.41 508.11 456.92C 505.01 459.1 502.23 461.68 499.77 464.66C 497.3 467.64 495.32 471.37 493.83 475.84L493.83 475.84L493.14 475.84L493.14 475.84L493.14 459.16C 493.14 456.75 493.2 454.85 493.31 453.48L493.31 453.48L490.39 452.1C 490.5 455.54 490.56 462.71 490.56 473.61C 488.27 469.82 485.72 466.52 482.91 463.71C 480.1 460.9 476.51 458.3 472.15 455.89L472.15 455.89L471.81 456.4C 475.59 459.16 478.95 462.25 481.87 465.69C 484.8 469.13 487.01 472.52 488.5 475.84L488.5 475.84L478.35 475.84C 476.86 475.84 475.48 475.67 474.22 475.33L474.22 475.33L472.67 476.87L472.67 476.87L490.56 476.87L490.56 476.87L490.56 487.2C 490.56 489.03 490.5 490.87 490.39 492.7zM230.11 492.53L233.37 490.64L233.37 490.64L231.83 489.6C 234.01 486.62 236.3 484.42 238.71 482.98C 241.12 481.55 244.1 480.54 247.65 479.97L247.65 479.97L247.65 479.28C 245.93 478.94 244.84 478.31 244.38 477.39C 241.06 478.65 238.36 480.32 236.3 482.38C 234.24 484.44 232.63 486.62 231.48 488.92C 229.19 485.02 226.9 482.04 224.6 479.97L224.6 479.97L234.06 479.97L234.06 479.97L235.78 481.69L235.78 481.69L238.54 478.94L238.54 478.94L228.39 478.94L228.39 478.94L225.81 478.42L225.81 478.42L224.43 479.8C 222.02 477.85 219.67 476.3 217.38 475.15L217.38 475.15L217.03 475.67C 219.56 477.28 221.96 479.48 224.26 482.29C 226.55 485.1 228.5 488.52 230.11 492.53zM216.86 492.36L220.64 490.12L220.64 490.12L219.1 489.26C 217.61 486.05 216.34 483.18 215.31 480.66L215.31 480.66L217.2 479.63L217.2 479.63L215.83 478.59L215.83 478.59L215.83 453.31L215.83 453.31L213.42 452.45C 213.53 454.97 213.59 456.75 213.59 457.78L213.59 457.78L213.59 477.22C 211.64 474.35 209.86 472.06 208.26 470.34L208.26 470.34L207.74 470.68C 209.35 473.09 210.95 476.07 212.56 479.63C 214.16 483.18 215.6 487.43 216.86 492.36zM410.22 492.36L414.01 490.47L414.01 490.47L412.63 489.26L412.63 489.26L412.63 481.69L412.63 481.69L418.31 481.69L418.31 481.69L419.34 483.41L419.34 483.41L422.09 481.52L422.09 481.52L420.89 480.32C 420.89 473.89 420.95 469.36 421.06 466.72L421.06 466.72L418.65 465.52L418.65 465.52L418.65 467.93L418.65 467.93L412.63 467.93L412.63 467.93L412.63 457.44C 416.42 457.78 418.94 458.07 420.2 458.3C 419.74 459.44 418.71 461.28 417.1 463.8L417.1 463.8L417.45 464.14C 420.54 461.51 422.44 459.64 423.13 458.55C 423.81 457.46 424.16 456.57 424.16 455.89C 424.16 455.2 423.93 454.51 423.47 453.82C 423.01 453.13 422.67 452.79 422.44 452.79C 422.21 452.79 422.04 453.13 421.92 453.82C 421.58 455.08 421.18 456.23 420.72 457.26C 416.47 456.69 412.34 456 408.33 455.2C 404.32 454.4 401.97 453.59 401.28 452.79L401.28 452.79L399.39 456.23C 400.76 456.23 404.43 456.57 410.4 457.26L410.4 457.26L410.4 467.93L410.4 467.93L404.37 467.93L404.37 467.93L404.37 466.55L404.37 466.55L401.97 465.52C 402.08 467.93 402.14 470.77 402.14 474.04C 402.14 477.3 402.08 480.43 401.97 483.41L401.97 483.41L404.37 481.69L404.37 481.69L410.4 481.69C 410.4 486.16 410.34 489.72 410.22 492.36zM360.33 492.01L364.81 490.29L364.81 490.29L363.6 488.92C 363.6 487.08 363.72 485.02 363.95 482.72L363.95 482.72L373.41 482.72L373.41 482.72L375.82 485.13L375.82 485.13L379.26 481.69L379.26 481.69L363.95 481.69C 364.63 474.12 365.84 468.79 367.56 465.69C 368.48 467.07 369.39 468.85 370.31 471.03C 371.23 473.2 372.15 475.67 373.06 478.42L373.06 478.42L376.68 475.67L376.68 475.67L375.13 474.81C 373.18 470.11 371.17 466.27 369.11 463.28C 371.52 460.42 374.04 458.41 376.68 457.26L376.68 457.26L378.74 464.66L378.74 464.66L379.43 464.49C 378.97 460.93 378.74 458.58 378.74 457.44C 378.74 456.29 379.03 455.2 379.6 454.17C 379.83 453.71 379.72 453.48 379.26 453.48C 378.45 453.48 376.96 453.88 374.78 454.68C 372.61 455.49 370.08 457.66 367.22 461.22C 363.66 457.55 359.76 454.8 355.52 452.96L355.52 452.96L355.35 453.65C 359.93 456.63 363.43 459.79 365.84 463.11C 363.55 467.36 362.05 473.55 361.37 481.69L361.37 481.69L347.78 481.69L347.78 481.69L347.6 473.43L347.6 473.43L355.52 473.43L355.52 473.43L357.07 475.15L357.07 475.15L359.65 472.75L359.65 472.75L358.1 471.54C 357.75 464.66 357.29 460.68 356.72 459.59C 356.15 458.5 355.06 457.61 353.45 456.92C 353.11 458.52 351.56 459.84 348.81 460.88L348.81 460.88L348.81 461.56C 350.99 461.22 352.51 460.99 353.37 460.88C 354.23 460.76 354.77 461.25 355 462.34C 355.23 463.43 355.46 466.78 355.69 472.4L355.69 472.4L347.6 472.4C 347.26 462.88 344.85 456.23 340.38 452.45L340.38 452.45L340.03 452.96C 343.02 457.21 344.59 461.76 344.77 466.64C 344.94 471.51 345.02 475.21 345.02 477.73C 345.02 480.26 344.97 482.44 344.85 484.27L344.85 484.27L347.95 482.72L347.95 482.72L361.19 482.72C 360.85 486.51 360.56 489.6 360.33 492.01zM331.95 491.84L335.56 488.23L335.56 488.23L319.22 488.23C 318.19 486.28 317.04 483.99 315.78 481.35L315.78 481.35L318.7 479.63L318.7 479.63L317.15 478.42L317.15 478.42L317.15 461.91C 317.15 458.47 317.21 455.83 317.33 453.99L317.33 453.99L314.4 452.79C 314.52 457.15 314.57 460.93 314.57 464.14L314.57 464.14L314.57 479.28C 309.99 472.29 304.02 466.67 296.68 462.42L296.68 462.42L296.34 463.11C 300.12 465.86 303.76 469.33 307.26 473.52C 310.76 477.71 313.6 482.61 315.78 488.23L315.78 488.23L302.36 488.23C 300.87 488.23 299.49 488.06 298.23 487.71L298.23 487.71L296.68 489.26L296.68 489.26L329.37 489.26zM367.73 491.5C 370.14 490.12 371.75 489.06 372.55 488.31C 373.35 487.57 373.67 486.82 373.49 486.08C 373.32 485.33 373.01 484.82 372.55 484.53C 372.09 484.24 371.8 484.1 371.69 484.1C 371.23 484.1 370.89 484.56 370.66 485.48C 370.31 486.74 369.16 488.57 367.22 490.98zM389.92 491.5L393.71 489.6L393.71 489.6L392.5 488.57C 391.82 487.43 390.9 485.42 389.75 482.55L389.75 482.55L396.8 482.55L396.8 482.55L398.18 484.27L398.18 484.27L401.28 481.35C 399.56 481.12 397.49 479 395.08 474.98L395.08 474.98L394.57 475.33L394.57 475.33L397.15 481.52L397.15 481.52L389.41 481.52C 387.69 477.85 385.91 474.92 384.07 472.75L384.07 472.75L383.56 473.09C 385.16 475.84 386.51 479.05 387.6 482.72C 388.69 486.39 389.46 489.32 389.92 491.5zM463.72 489.26L466.13 486.85L466.13 486.85L464.58 485.82C 464.58 478.71 464.64 474.35 464.76 472.75L464.76 472.75L462.18 471.89L462.18 471.89L462.18 473.78L462.18 473.78L447.55 473.78L447.55 473.78L447.55 458.47C 447.55 456.86 448.41 456.06 450.13 456.06L450.13 456.06L462.86 456.06C 463.9 456.06 464.53 456.72 464.76 458.04C 464.99 459.36 465.1 461.45 465.1 464.32L465.1 464.32L465.96 464.32C 466.08 461.68 466.28 459.87 466.56 458.9C 466.85 457.92 467.45 457.21 468.37 456.75C 467.57 455.26 466.68 454.42 465.7 454.25C 464.73 454.08 463.55 453.99 462.18 453.99L462.18 453.99L448.93 453.99C 446.41 453.99 445.15 455.37 445.15 458.12L445.15 458.12L445.15 482.55C 445.15 484.5 445.09 486.68 444.97 489.09L444.97 489.09L447.9 487.54L447.9 487.54L462 487.54zM478.69 489.09C 482.13 486.57 484.11 484.87 484.63 484.01C 485.14 483.15 485.34 482.29 485.23 481.43C 485.11 480.57 484.83 479.91 484.37 479.46C 483.91 479 483.57 478.77 483.34 478.77C 482.88 478.77 482.42 479.63 481.96 481.35C 481.27 483.64 480.01 486.05 478.18 488.57zM265.54 487.37L268.3 484.62L268.3 484.62L266.58 483.58C 265.2 478.42 263.71 473.95 262.1 470.17C 263.82 467.64 264.94 465.66 265.46 464.23C 265.97 462.8 266.23 461.62 266.23 460.7C 266.23 459.79 266.03 459.07 265.63 458.55C 265.23 458.04 264.91 457.78 264.68 457.78C 264.23 457.78 263.88 458.7 263.65 460.53C 263.19 462.94 262.33 465.46 261.07 468.1C 258.43 463.28 255.39 458.93 251.95 455.03L251.95 455.03L251.44 455.54C 254.88 460.47 257.69 465.35 259.87 470.17C 258.38 473.03 256.48 476.3 254.19 479.97L254.19 479.97L254.71 480.32C 257 477.45 259.01 474.75 260.73 472.23C 261.87 475.33 262.96 479.46 264 484.62L264 484.62L258.15 484.62C 256.66 484.62 255.28 484.44 254.02 484.1L254.02 484.1L252.47 485.65L252.47 485.65L263.82 485.65zM447.55 486.51L447.55 474.81L447.55 474.81L453.75 474.81L453.75 474.81L453.75 486.51zM455.98 486.51L455.98 474.81L455.98 474.81L462.18 474.81L462.18 474.81L462.18 486.51zM275.69 483.58C 278.22 482.21 279.74 481.2 280.25 480.57C 280.77 479.94 281.03 479.46 281.03 479.11C 281.03 478.65 280.83 478.14 280.43 477.56C 280.02 476.99 279.71 476.7 279.48 476.7C 279.14 476.7 278.79 477.22 278.45 478.25C 277.87 479.86 276.78 481.46 275.18 483.07zM404.37 480.66L404.37 468.96L404.37 468.96L410.4 468.96L410.4 468.96L410.4 480.66zM412.63 480.66L412.63 468.96L412.63 468.96L418.65 468.96L418.65 468.96L418.65 480.66zM321.28 478.42C 328.62 473.61 332.67 470.62 333.41 469.48C 334.16 468.33 334.53 467.41 334.53 466.72C 334.53 466.27 334.36 465.72 334.01 465.09C 333.67 464.46 333.38 464.14 333.15 464.14C 332.69 464.14 332.01 465.06 331.09 466.9C 329.71 469.31 326.27 472.98 320.77 477.91zM230.45 476.87L232.86 474.98L232.86 474.98L231.65 473.95L231.65 473.95L231.65 455.89C 231.65 454.05 230.68 452.9 228.73 452.45C 228.73 453.59 227.58 454.51 225.29 455.2L225.29 455.2L225.29 455.71C 226.67 455.49 227.73 455.37 228.47 455.37C 229.22 455.37 229.53 455.77 229.42 456.57L229.42 456.57L229.42 462.94L229.42 462.94L223.4 462.94L223.4 462.94L223.4 453.82L223.4 453.82L220.99 452.62C 221.1 454.91 221.16 456.69 221.16 457.95L221.16 457.95L221.16 472.06C 221.16 473.43 221.1 474.98 220.99 476.7L220.99 476.7L223.4 475.33L223.4 475.33L229.25 475.33zM240.43 476.87L244.21 474.98L244.21 474.98L242.84 473.95L242.84 473.95L242.84 456.4C 242.95 454.34 241.8 452.96 239.4 452.27C 239.51 453.54 238.08 454.63 235.1 455.54L235.1 455.54L235.1 456.23C 237.04 456 238.45 455.89 239.31 455.89C 240.17 455.89 240.6 456.29 240.6 457.09L240.6 457.09L240.6 472.75C 240.6 474.01 240.54 475.38 240.43 476.87zM389.92 476.7L393.71 474.98L393.71 474.98L392.33 473.78L392.33 473.78L392.33 458.47L392.33 458.47L399.9 464.32L399.9 464.32L400.25 463.8C 395.08 458.64 392.27 455.37 391.82 453.99L391.82 453.99L389.41 456.75C 389.87 457.32 390.1 458.18 390.1 459.33L390.1 459.33L390.1 472.57C 390.1 473.72 390.04 475.1 389.92 476.7zM223.4 474.29L223.4 469.65L223.4 469.65L229.42 469.65L229.42 469.65L229.42 474.29zM234.75 474.29L238.02 472.92L238.02 472.92L236.99 471.71L236.99 471.71L236.99 464.66C 236.99 463.05 237.04 461.22 237.16 459.16L237.16 459.16L234.75 458.47C 234.87 460.3 234.92 461.74 234.92 462.77L234.92 462.77L234.92 470.51C 234.92 471.2 234.87 472.46 234.75 474.29zM223.4 468.62L223.4 463.97L223.4 463.97L229.42 463.97L229.42 463.97L229.42 468.62zM282.58 465.69L285.67 462.6L285.67 462.6L272.94 462.6C 271.45 462.6 270.07 462.42 268.81 462.08L268.81 462.08L267.27 463.63L267.27 463.63L280.51 463.63z" /></clipPath><clipPath id="6"><path id="" clip-rule="evenodd" transform="matrix(1 0 0 1 0 0)" d="M1.0729E-05 540L720 540L720 540L720 0L720 0L1.0729E-05 0z" /></clipPath><clipPath id="7"><path id="" clip-rule="evenodd" transform="matrix(1 0 0 1 0 0)" d="M1.0729E-05 540L720 540L720 540L720 0L720 0L1.0729E-05 0z" /></clipPath><clipPath id="8"><path id="" clip-rule="evenodd" transform="matrix(1 0 0 1 0 0)" d="M1.0729E-05 540L720 540L720 540L720 0L720 0L1.0729E-05 0z" /></clipPath><clipPath id="9"><path id="" clip-rule="evenodd" transform="matrix(1 0 0 1 0 0)" d="M1.0729E-05 540L720 540L720 540L720 0L720 0L1.0729E-05 0z" /></clipPath><clipPath id="10"><path id="" clip-rule="evenodd" transform="matrix(1 0 0 1 0 0)" d="M1.0729E-05 540L720 540L720 540L720 0L720 0L1.0729E-05 0z" /></clipPath><clipPath id="11"><path id="" clip-rule="evenodd" transform="matrix(1 0 0 1 0 0)" d="M1.0729E-05 540L720 540L720 540L720 0L720 0L1.0729E-05 0z" /></clipPath><clipPath id="12"><path id="" clip-rule="evenodd" transform="matrix(1 0 0 1 0 0)" d="M1.0729E-05 540L720 540L720 540L720 0L720 0L1.0729E-05 0z" /></clipPath><clipPath id="13"><path id="" clip-rule="evenodd" transform="matrix(1 0 0 1 0 0)" d="M1.0729E-05 540L720 540L720 540L720 0L720 0L1.0729E-05 0z" /></clipPath></defs><g transform="matrix(1.333333 0 0 1.333333 0 0)"><g clip-path="url(#1)"><g clip-path="url(#2)"><path id="1" transform="matrix(1 0 0 -1 0 540)" d="M0 6.1035E-05L720 6.1035E-05L720 6.1035E-05L720 540.0001L720 540.0001L0 540.0001z" stroke="none" fill="#FFFFFF" fill-rule="evenodd" /></g><path id="2" transform="matrix(1 0 0 -1 0 540)" clip-path="url(#3)" d="M0 499.77L720 499.77L720 499.77L720 446.97L720 446.97L0 446.97" stroke="none" fill="url(#13459)" /><path id="3" transform="matrix(1 0 0 -1 0 540)" clip-path="url(#4)" d="M0 499.77L720 499.77L720 499.77L720 540L720 540L0 540" stroke="none" fill="#000000" fill-rule="evenodd" /><path id="4" transform="matrix(1 0 0 -1 0 540)" clip-path="url(#5)" d="M0 446.97L720 446.97L720 446.97L720 0L720 0L0 0" stroke="none" fill="#CCCCCC" fill-rule="evenodd" /><path id="5" transform="matrix(1 0 0 -1 0 540)" d="M276.04 492.87L279.48 490.98L279.48 490.98L278.1 490.29C 277.07 488.8 276.1 487.43 275.18 486.16L275.18 486.16L283.95 486.16L283.95 486.16L285.5 487.71L285.5 487.71L287.91 485.3L287.91 485.3L286.53 484.62C 286.42 480.26 286.27 477.51 286.1 476.36C 285.93 475.21 285.53 474.24 284.9 473.43C 284.27 472.63 283.09 472 281.37 471.54C 281.37 472.57 279.82 473.66 276.73 474.81L276.73 474.81L276.9 475.5C 279.42 475.04 281.11 474.78 281.97 474.72C 282.83 474.67 283.41 475.33 283.69 476.7C 283.98 478.08 284.12 480.89 284.12 485.13L284.12 485.13L272.43 485.13L272.43 485.13L272.43 469.82L272.43 469.82L287.22 469.82L287.22 469.82L288.94 471.54L288.94 471.54L291.35 469.13L291.35 469.13L289.97 468.27C 289.86 463.57 289.6 460.22 289.2 458.21C 288.8 456.2 288.17 454.83 287.31 454.08C 286.45 453.34 285.27 452.79 283.78 452.45C 283.89 453.82 282.06 455.08 278.28 456.23L278.28 456.23L278.45 457.09C 281.31 456.52 283.35 456.2 284.55 456.14C 285.76 456.09 286.53 457.23 286.88 459.59C 287.22 461.94 287.45 465 287.56 468.79L287.56 468.79L272.43 468.79L272.43 468.79L271.22 467.41L271.22 467.41L268.99 469.48L268.99 469.48L270.19 470.51C 270.19 479.23 270.13 484.96 270.02 487.71L270.02 487.71L272.43 486.16L272.43 486.16L274.32 486.16C 275.24 488.8 275.81 491.04 276.04 492.87zM435.68 492.7L439.81 490.81L439.81 490.81L438.26 489.6L438.26 489.6L438.26 482.72L438.26 482.72L439.98 482.72L439.98 482.72L441.88 484.62L441.88 484.62L444.8 481.69L444.8 481.69L438.26 481.69L438.26 481.69L438.26 473.78L438.26 473.78L444.11 476.01L444.11 476.01L444.46 475.33L444.46 475.33L438.26 472.06L438.26 472.06L438.26 456.4C 438.03 454.57 436.77 453.31 434.48 452.62C 434.59 453.99 432.87 455.26 429.32 456.4L429.32 456.4L429.32 457.26C 432.3 456.69 434.14 456.46 434.82 456.57C 435.51 456.69 435.86 457.21 435.86 458.12L435.86 458.12L435.86 471.03C 432.64 469.53 430.69 468.33 430.01 467.41L430.01 467.41L427.77 470.51C 429.26 470.74 431.96 471.54 435.86 472.92L435.86 472.92L435.86 481.69L435.86 481.69L431.21 481.69L431.21 481.69L429.15 481.35L429.15 481.35L427.77 482.72L427.77 482.72L435.86 482.72C 435.86 486.51 435.8 489.83 435.68 492.7zM490.39 492.7L495.21 490.81L495.21 490.81L493.14 489.26L493.14 489.26L493.14 476.87L493.14 476.87L495.03 476.87C 498.59 481.46 501.17 485.93 502.78 490.29L502.78 490.29L506.73 487.2L506.73 487.2L504.84 486.51C 501.74 482.72 498.88 479.51 496.24 476.87L496.24 476.87L505.53 476.87L505.53 476.87L508.11 479.28L508.11 479.28L511.55 475.84L511.55 475.84L494.86 475.84C 496.35 472.17 498.7 468.88 501.92 465.95C 505.13 463.03 508.57 461.05 512.24 460.02L512.24 460.02L512.24 459.33C 510.06 459.21 508.68 458.41 508.11 456.92C 505.01 459.1 502.23 461.68 499.77 464.66C 497.3 467.64 495.32 471.37 493.83 475.84L493.83 475.84L493.14 475.84L493.14 475.84L493.14 459.16C 493.14 456.75 493.2 454.85 493.31 453.48L493.31 453.48L490.39 452.1C 490.5 455.54 490.56 462.71 490.56 473.61C 488.27 469.82 485.72 466.52 482.91 463.71C 480.1 460.9 476.51 458.3 472.15 455.89L472.15 455.89L471.81 456.4C 475.59 459.16 478.95 462.25 481.87 465.69C 484.8 469.13 487.01 472.52 488.5 475.84L488.5 475.84L478.35 475.84C 476.86 475.84 475.48 475.67 474.22 475.33L474.22 475.33L472.67 476.87L472.67 476.87L490.56 476.87L490.56 476.87L490.56 487.2C 490.56 489.03 490.5 490.87 490.39 492.7zM230.11 492.53L233.37 490.64L233.37 490.64L231.83 489.6C 234.01 486.62 236.3 484.42 238.71 482.98C 241.12 481.55 244.1 480.54 247.65 479.97L247.65 479.97L247.65 479.28C 245.93 478.94 244.84 478.31 244.38 477.39C 241.06 478.65 238.36 480.32 236.3 482.38C 234.24 484.44 232.63 486.62 231.48 488.92C 229.19 485.02 226.9 482.04 224.6 479.97L224.6 479.97L234.06 479.97L234.06 479.97L235.78 481.69L235.78 481.69L238.54 478.94L238.54 478.94L228.39 478.94L228.39 478.94L225.81 478.42L225.81 478.42L224.43 479.8C 222.02 477.85 219.67 476.3 217.38 475.15L217.38 475.15L217.03 475.67C 219.56 477.28 221.96 479.48 224.26 482.29C 226.55 485.1 228.5 488.52 230.11 492.53zM216.86 492.36L220.64 490.12L220.64 490.12L219.1 489.26C 217.61 486.05 216.34 483.18 215.31 480.66L215.31 480.66L217.2 479.63L217.2 479.63L215.83 478.59L215.83 478.59L215.83 453.31L215.83 453.31L213.42 452.45C 213.53 454.97 213.59 456.75 213.59 457.78L213.59 457.78L213.59 477.22C 211.64 474.35 209.86 472.06 208.26 470.34L208.26 470.34L207.74 470.68C 209.35 473.09 210.95 476.07 212.56 479.63C 214.16 483.18 215.6 487.43 216.86 492.36zM410.22 492.36L414.01 490.47L414.01 490.47L412.63 489.26L412.63 489.26L412.63 481.69L412.63 481.69L418.31 481.69L418.31 481.69L419.34 483.41L419.34 483.41L422.09 481.52L422.09 481.52L420.89 480.32C 420.89 473.89 420.95 469.36 421.06 466.72L421.06 466.72L418.65 465.52L418.65 465.52L418.65 467.93L418.65 467.93L412.63 467.93L412.63 467.93L412.63 457.44C 416.42 457.78 418.94 458.07 420.2 458.3C 419.74 459.44 418.71 461.28 417.1 463.8L417.1 463.8L417.45 464.14C 420.54 461.51 422.44 459.64 423.13 458.55C 423.81 457.46 424.16 456.57 424.16 455.89C 424.16 455.2 423.93 454.51 423.47 453.82C 423.01 453.13 422.67 452.79 422.44 452.79C 422.21 452.79 422.04 453.13 421.92 453.82C 421.58 455.08 421.18 456.23 420.72 457.26C 416.47 456.69 412.34 456 408.33 455.2C 404.32 454.4 401.97 453.59 401.28 452.79L401.28 452.79L399.39 456.23C 400.76 456.23 404.43 456.57 410.4 457.26L410.4 457.26L410.4 467.93L410.4 467.93L404.37 467.93L404.37 467.93L404.37 466.55L404.37 466.55L401.97 465.52C 402.08 467.93 402.14 470.77 402.14 474.04C 402.14 477.3 402.08 480.43 401.97 483.41L401.97 483.41L404.37 481.69L404.37 481.69L410.4 481.69C 410.4 486.16 410.34 489.72 410.22 492.36zM360.33 492.01L364.81 490.29L364.81 490.29L363.6 488.92C 363.6 487.08 363.72 485.02 363.95 482.72L363.95 482.72L373.41 482.72L373.41 482.72L375.82 485.13L375.82 485.13L379.26 481.69L379.26 481.69L363.95 481.69C 364.63 474.12 365.84 468.79 367.56 465.69C 368.48 467.07 369.39 468.85 370.31 471.03C 371.23 473.2 372.15 475.67 373.06 478.42L373.06 478.42L376.68 475.67L376.68 475.67L375.13 474.81C 373.18 470.11 371.17 466.27 369.11 463.28C 371.52 460.42 374.04 458.41 376.68 457.26L376.68 457.26L378.74 464.66L378.74 464.66L379.43 464.49C 378.97 460.93 378.74 458.58 378.74 457.44C 378.74 456.29 379.03 455.2 379.6 454.17C 379.83 453.71 379.72 453.48 379.26 453.48C 378.45 453.48 376.96 453.88 374.78 454.68C 372.61 455.49 370.08 457.66 367.22 461.22C 363.66 457.55 359.76 454.8 355.52 452.96L355.52 452.96L355.35 453.65C 359.93 456.63 363.43 459.79 365.84 463.11C 363.55 467.36 362.05 473.55 361.37 481.69L361.37 481.69L347.78 481.69L347.78 481.69L347.6 473.43L347.6 473.43L355.52 473.43L355.52 473.43L357.07 475.15L357.07 475.15L359.65 472.75L359.65 472.75L358.1 471.54C 357.75 464.66 357.29 460.68 356.72 459.59C 356.15 458.5 355.06 457.61 353.45 456.92C 353.11 458.52 351.56 459.84 348.81 460.88L348.81 460.88L348.81 461.56C 350.99 461.22 352.51 460.99 353.37 460.88C 354.23 460.76 354.77 461.25 355 462.34C 355.23 463.43 355.46 466.78 355.69 472.4L355.69 472.4L347.6 472.4C 347.26 462.88 344.85 456.23 340.38 452.45L340.38 452.45L340.03 452.96C 343.02 457.21 344.59 461.76 344.77 466.64C 344.94 471.51 345.02 475.21 345.02 477.73C 345.02 480.26 344.97 482.44 344.85 484.27L344.85 484.27L347.95 482.72L347.95 482.72L361.19 482.72C 360.85 486.51 360.56 489.6 360.33 492.01zM331.95 491.84L335.56 488.23L335.56 488.23L319.22 488.23C 318.19 486.28 317.04 483.99 315.78 481.35L315.78 481.35L318.7 479.63L318.7 479.63L317.15 478.42L317.15 478.42L317.15 461.91C 317.15 458.47 317.21 455.83 317.33 453.99L317.33 453.99L314.4 452.79C 314.52 457.15 314.57 460.93 314.57 464.14L314.57 464.14L314.57 479.28C 309.99 472.29 304.02 466.67 296.68 462.42L296.68 462.42L296.34 463.11C 300.12 465.86 303.76 469.33 307.26 473.52C 310.76 477.71 313.6 482.61 315.78 488.23L315.78 488.23L302.36 488.23C 300.87 488.23 299.49 488.06 298.23 487.71L298.23 487.71L296.68 489.26L296.68 489.26L329.37 489.26zM367.73 491.5C 370.14 490.12 371.75 489.06 372.55 488.31C 373.35 487.57 373.67 486.82 373.49 486.08C 373.32 485.33 373.01 484.82 372.55 484.53C 372.09 484.24 371.8 484.1 371.69 484.1C 371.23 484.1 370.89 484.56 370.66 485.48C 370.31 486.74 369.16 488.57 367.22 490.98zM389.92 491.5L393.71 489.6L393.71 489.6L392.5 488.57C 391.82 487.43 390.9 485.42 389.75 482.55L389.75 482.55L396.8 482.55L396.8 482.55L398.18 484.27L398.18 484.27L401.28 481.35C 399.56 481.12 397.49 479 395.08 474.98L395.08 474.98L394.57 475.33L394.57 475.33L397.15 481.52L397.15 481.52L389.41 481.52C 387.69 477.85 385.91 474.92 384.07 472.75L384.07 472.75L383.56 473.09C 385.16 475.84 386.51 479.05 387.6 482.72C 388.69 486.39 389.46 489.32 389.92 491.5zM463.72 489.26L466.13 486.85L466.13 486.85L464.58 485.82C 464.58 478.71 464.64 474.35 464.76 472.75L464.76 472.75L462.18 471.89L462.18 471.89L462.18 473.78L462.18 473.78L447.55 473.78L447.55 473.78L447.55 458.47C 447.55 456.86 448.41 456.06 450.13 456.06L450.13 456.06L462.86 456.06C 463.9 456.06 464.53 456.72 464.76 458.04C 464.99 459.36 465.1 461.45 465.1 464.32L465.1 464.32L465.96 464.32C 466.08 461.68 466.28 459.87 466.56 458.9C 466.85 457.92 467.45 457.21 468.37 456.75C 467.57 455.26 466.68 454.42 465.7 454.25C 464.73 454.08 463.55 453.99 462.18 453.99L462.18 453.99L448.93 453.99C 446.41 453.99 445.15 455.37 445.15 458.12L445.15 458.12L445.15 482.55C 445.15 484.5 445.09 486.68 444.97 489.09L444.97 489.09L447.9 487.54L447.9 487.54L462 487.54zM478.69 489.09C 482.13 486.57 484.11 484.87 484.63 484.01C 485.14 483.15 485.34 482.29 485.23 481.43C 485.11 480.57 484.83 479.91 484.37 479.46C 483.91 479 483.57 478.77 483.34 478.77C 482.88 478.77 482.42 479.63 481.96 481.35C 481.27 483.64 480.01 486.05 478.18 488.57zM265.54 487.37L268.3 484.62L268.3 484.62L266.58 483.58C 265.2 478.42 263.71 473.95 262.1 470.17C 263.82 467.64 264.94 465.66 265.46 464.23C 265.97 462.8 266.23 461.62 266.23 460.7C 266.23 459.79 266.03 459.07 265.63 458.55C 265.23 458.04 264.91 457.78 264.68 457.78C 264.23 457.78 263.88 458.7 263.65 460.53C 263.19 462.94 262.33 465.46 261.07 468.1C 258.43 463.28 255.39 458.93 251.95 455.03L251.95 455.03L251.44 455.54C 254.88 460.47 257.69 465.35 259.87 470.17C 258.38 473.03 256.48 476.3 254.19 479.97L254.19 479.97L254.71 480.32C 257 477.45 259.01 474.75 260.73 472.23C 261.87 475.33 262.96 479.46 264 484.62L264 484.62L258.15 484.62C 256.66 484.62 255.28 484.44 254.02 484.1L254.02 484.1L252.47 485.65L252.47 485.65L263.82 485.65zM447.55 486.51L447.55 474.81L447.55 474.81L453.75 474.81L453.75 474.81L453.75 486.51zM455.98 486.51L455.98 474.81L455.98 474.81L462.18 474.81L462.18 474.81L462.18 486.51zM275.69 483.58C 278.22 482.21 279.74 481.2 280.25 480.57C 280.77 479.94 281.03 479.46 281.03 479.11C 281.03 478.65 280.83 478.14 280.43 477.56C 280.02 476.99 279.71 476.7 279.48 476.7C 279.14 476.7 278.79 477.22 278.45 478.25C 277.87 479.86 276.78 481.46 275.18 483.07zM404.37 480.66L404.37 468.96L404.37 468.96L410.4 468.96L410.4 468.96L410.4 480.66zM412.63 480.66L412.63 468.96L412.63 468.96L418.65 468.96L418.65 468.96L418.65 480.66zM321.28 478.42C 328.62 473.61 332.67 470.62 333.41 469.48C 334.16 468.33 334.53 467.41 334.53 466.72C 334.53 466.27 334.36 465.72 334.01 465.09C 333.67 464.46 333.38 464.14 333.15 464.14C 332.69 464.14 332.01 465.06 331.09 466.9C 329.71 469.31 326.27 472.98 320.77 477.91zM230.45 476.87L232.86 474.98L232.86 474.98L231.65 473.95L231.65 473.95L231.65 455.89C 231.65 454.05 230.68 452.9 228.73 452.45C 228.73 453.59 227.58 454.51 225.29 455.2L225.29 455.2L225.29 455.71C 226.67 455.49 227.73 455.37 228.47 455.37C 229.22 455.37 229.53 455.77 229.42 456.57L229.42 456.57L229.42 462.94L229.42 462.94L223.4 462.94L223.4 462.94L223.4 453.82L223.4 453.82L220.99 452.62C 221.1 454.91 221.16 456.69 221.16 457.95L221.16 457.95L221.16 472.06C 221.16 473.43 221.1 474.98 220.99 476.7L220.99 476.7L223.4 475.33L223.4 475.33L229.25 475.33zM240.43 476.87L244.21 474.98L244.21 474.98L242.84 473.95L242.84 473.95L242.84 456.4C 242.95 454.34 241.8 452.96 239.4 452.27C 239.51 453.54 238.08 454.63 235.1 455.54L235.1 455.54L235.1 456.23C 237.04 456 238.45 455.89 239.31 455.89C 240.17 455.89 240.6 456.29 240.6 457.09L240.6 457.09L240.6 472.75C 240.6 474.01 240.54 475.38 240.43 476.87zM389.92 476.7L393.71 474.98L393.71 474.98L392.33 473.78L392.33 473.78L392.33 458.47L392.33 458.47L399.9 464.32L399.9 464.32L400.25 463.8C 395.08 458.64 392.27 455.37 391.82 453.99L391.82 453.99L389.41 456.75C 389.87 457.32 390.1 458.18 390.1 459.33L390.1 459.33L390.1 472.57C 390.1 473.72 390.04 475.1 389.92 476.7zM223.4 474.29L223.4 469.65L223.4 469.65L229.42 469.65L229.42 469.65L229.42 474.29zM234.75 474.29L238.02 472.92L238.02 472.92L236.99 471.71L236.99 471.71L236.99 464.66C 236.99 463.05 237.04 461.22 237.16 459.16L237.16 459.16L234.75 458.47C 234.87 460.3 234.92 461.74 234.92 462.77L234.92 462.77L234.92 470.51C 234.92 471.2 234.87 472.46 234.75 474.29zM223.4 468.62L223.4 463.97L223.4 463.97L229.42 463.97L229.42 463.97L229.42 468.62zM282.58 465.69L285.67 462.6L285.67 462.6L272.94 462.6C 271.45 462.6 270.07 462.42 268.81 462.08L268.81 462.08L267.27 463.63L267.27 463.63L280.51 463.63z" stroke="none" fill="none" /><path id="6" transform="matrix(1 0 0 -1 0 540)" d="M276.04 492.87L279.48 490.98L279.48 490.98L278.1 490.29C 277.07 488.8 276.1 487.43 275.18 486.16L275.18 486.16L283.95 486.16L283.95 486.16L285.5 487.71L285.5 487.71L287.91 485.3L287.91 485.3L286.53 484.62C 286.42 480.26 286.27 477.51 286.1 476.36C 285.93 475.21 285.53 474.24 284.9 473.43C 284.27 472.63 283.09 472 281.37 471.54C 281.37 472.57 279.82 473.66 276.73 474.81L276.73 474.81L276.9 475.5C 279.42 475.04 281.11 474.78 281.97 474.72C 282.83 474.67 283.41 475.33 283.69 476.7C 283.98 478.08 284.12 480.89 284.12 485.13L284.12 485.13L272.43 485.13L272.43 485.13L272.43 469.82L272.43 469.82L287.22 469.82L287.22 469.82L288.94 471.54L288.94 471.54L291.35 469.13L291.35 469.13L289.97 468.27C 289.86 463.57 289.6 460.22 289.2 458.21C 288.8 456.2 288.17 454.83 287.31 454.08C 286.45 453.34 285.27 452.79 283.78 452.45C 283.89 453.82 282.06 455.08 278.28 456.23L278.28 456.23L278.45 457.09C 281.31 456.52 283.35 456.2 284.55 456.14C 285.76 456.09 286.53 457.23 286.88 459.59C 287.22 461.94 287.45 465 287.56 468.79L287.56 468.79L272.43 468.79L272.43 468.79L271.22 467.41L271.22 467.41L268.99 469.48L268.99 469.48L270.19 470.51C 270.19 479.23 270.13 484.96 270.02 487.71L270.02 487.71L272.43 486.16L272.43 486.16L274.32 486.16C 275.24 488.8 275.81 491.04 276.04 492.87zM435.68 492.7L439.81 490.81L439.81 490.81L438.26 489.6L438.26 489.6L438.26 482.72L438.26 482.72L439.98 482.72L439.98 482.72L441.88 484.62L441.88 484.62L444.8 481.69L444.8 481.69L438.26 481.69L438.26 481.69L438.26 473.78L438.26 473.78L444.11 476.01L444.11 476.01L444.46 475.33L444.46 475.33L438.26 472.06L438.26 472.06L438.26 456.4C 438.03 454.57 436.77 453.31 434.48 452.62C 434.59 453.99 432.87 455.26 429.32 456.4L429.32 456.4L429.32 457.26C 432.3 456.69 434.14 456.46 434.82 456.57C 435.51 456.69 435.86 457.21 435.86 458.12L435.86 458.12L435.86 471.03C 432.64 469.53 430.69 468.33 430.01 467.41L430.01 467.41L427.77 470.51C 429.26 470.74 431.96 471.54 435.86 472.92L435.86 472.92L435.86 481.69L435.86 481.69L431.21 481.69L431.21 481.69L429.15 481.35L429.15 481.35L427.77 482.72L427.77 482.72L435.86 482.72C 435.86 486.51 435.8 489.83 435.68 492.7zM490.39 492.7L495.21 490.81L495.21 490.81L493.14 489.26L493.14 489.26L493.14 476.87L493.14 476.87L495.03 476.87C 498.59 481.46 501.17 485.93 502.78 490.29L502.78 490.29L506.73 487.2L506.73 487.2L504.84 486.51C 501.74 482.72 498.88 479.51 496.24 476.87L496.24 476.87L505.53 476.87L505.53 476.87L508.11 479.28L508.11 479.28L511.55 475.84L511.55 475.84L494.86 475.84C 496.35 472.17 498.7 468.88 501.92 465.95C 505.13 463.03 508.57 461.05 512.24 460.02L512.24 460.02L512.24 459.33C 510.06 459.21 508.68 458.41 508.11 456.92C 505.01 459.1 502.23 461.68 499.77 464.66C 497.3 467.64 495.32 471.37 493.83 475.84L493.83 475.84L493.14 475.84L493.14 475.84L493.14 459.16C 493.14 456.75 493.2 454.85 493.31 453.48L493.31 453.48L490.39 452.1C 490.5 455.54 490.56 462.71 490.56 473.61C 488.27 469.82 485.72 466.52 482.91 463.71C 480.1 460.9 476.51 458.3 472.15 455.89L472.15 455.89L471.81 456.4C 475.59 459.16 478.95 462.25 481.87 465.69C 484.8 469.13 487.01 472.52 488.5 475.84L488.5 475.84L478.35 475.84C 476.86 475.84 475.48 475.67 474.22 475.33L474.22 475.33L472.67 476.87L472.67 476.87L490.56 476.87L490.56 476.87L490.56 487.2C 490.56 489.03 490.5 490.87 490.39 492.7zM230.11 492.53L233.37 490.64L233.37 490.64L231.83 489.6C 234.01 486.62 236.3 484.42 238.71 482.98C 241.12 481.55 244.1 480.54 247.65 479.97L247.65 479.97L247.65 479.28C 245.93 478.94 244.84 478.31 244.38 477.39C 241.06 478.65 238.36 480.32 236.3 482.38C 234.24 484.44 232.63 486.62 231.48 488.92C 229.19 485.02 226.9 482.04 224.6 479.97L224.6 479.97L234.06 479.97L234.06 479.97L235.78 481.69L235.78 481.69L238.54 478.94L238.54 478.94L228.39 478.94L228.39 478.94L225.81 478.42L225.81 478.42L224.43 479.8C 222.02 477.85 219.67 476.3 217.38 475.15L217.38 475.15L217.03 475.67C 219.56 477.28 221.96 479.48 224.26 482.29C 226.55 485.1 228.5 488.52 230.11 492.53zM216.86 492.36L220.64 490.12L220.64 490.12L219.1 489.26C 217.61 486.05 216.34 483.18 215.31 480.66L215.31 480.66L217.2 479.63L217.2 479.63L215.83 478.59L215.83 478.59L215.83 453.31L215.83 453.31L213.42 452.45C 213.53 454.97 213.59 456.75 213.59 457.78L213.59 457.78L213.59 477.22C 211.64 474.35 209.86 472.06 208.26 470.34L208.26 470.34L207.74 470.68C 209.35 473.09 210.95 476.07 212.56 479.63C 214.16 483.18 215.6 487.43 216.86 492.36zM410.22 492.36L414.01 490.47L414.01 490.47L412.63 489.26L412.63 489.26L412.63 481.69L412.63 481.69L418.31 481.69L418.31 481.69L419.34 483.41L419.34 483.41L422.09 481.52L422.09 481.52L420.89 480.32C 420.89 473.89 420.95 469.36 421.06 466.72L421.06 466.72L418.65 465.52L418.65 465.52L418.65 467.93L418.65 467.93L412.63 467.93L412.63 467.93L412.63 457.44C 416.42 457.78 418.94 458.07 420.2 458.3C 419.74 459.44 418.71 461.28 417.1 463.8L417.1 463.8L417.45 464.14C 420.54 461.51 422.44 459.64 423.13 458.55C 423.81 457.46 424.16 456.57 424.16 455.89C 424.16 455.2 423.93 454.51 423.47 453.82C 423.01 453.13 422.67 452.79 422.44 452.79C 422.21 452.79 422.04 453.13 421.92 453.82C 421.58 455.08 421.18 456.23 420.72 457.26C 416.47 456.69 412.34 456 408.33 455.2C 404.32 454.4 401.97 453.59 401.28 452.79L401.28 452.79L399.39 456.23C 400.76 456.23 404.43 456.57 410.4 457.26L410.4 457.26L410.4 467.93L410.4 467.93L404.37 467.93L404.37 467.93L404.37 466.55L404.37 466.55L401.97 465.52C 402.08 467.93 402.14 470.77 402.14 474.04C 402.14 477.3 402.08 480.43 401.97 483.41L401.97 483.41L404.37 481.69L404.37 481.69L410.4 481.69C 410.4 486.16 410.34 489.72 410.22 492.36zM360.33 492.01L364.81 490.29L364.81 490.29L363.6 488.92C 363.6 487.08 363.72 485.02 363.95 482.72L363.95 482.72L373.41 482.72L373.41 482.72L375.82 485.13L375.82 485.13L379.26 481.69L379.26 481.69L363.95 481.69C 364.63 474.12 365.84 468.79 367.56 465.69C 368.48 467.07 369.39 468.85 370.31 471.03C 371.23 473.2 372.15 475.67 373.06 478.42L373.06 478.42L376.68 475.67L376.68 475.67L375.13 474.81C 373.18 470.11 371.17 466.27 369.11 463.28C 371.52 460.42 374.04 458.41 376.68 457.26L376.68 457.26L378.74 464.66L378.74 464.66L379.43 464.49C 378.97 460.93 378.74 458.58 378.74 457.44C 378.74 456.29 379.03 455.2 379.6 454.17C 379.83 453.71 379.72 453.48 379.26 453.48C 378.45 453.48 376.96 453.88 374.78 454.68C 372.61 455.49 370.08 457.66 367.22 461.22C 363.66 457.55 359.76 454.8 355.52 452.96L355.52 452.96L355.35 453.65C 359.93 456.63 363.43 459.79 365.84 463.11C 363.55 467.36 362.05 473.55 361.37 481.69L361.37 481.69L347.78 481.69L347.78 481.69L347.6 473.43L347.6 473.43L355.52 473.43L355.52 473.43L357.07 475.15L357.07 475.15L359.65 472.75L359.65 472.75L358.1 471.54C 357.75 464.66 357.29 460.68 356.72 459.59C 356.15 458.5 355.06 457.61 353.45 456.92C 353.11 458.52 351.56 459.84 348.81 460.88L348.81 460.88L348.81 461.56C 350.99 461.22 352.51 460.99 353.37 460.88C 354.23 460.76 354.77 461.25 355 462.34C 355.23 463.43 355.46 466.78 355.69 472.4L355.69 472.4L347.6 472.4C 347.26 462.88 344.85 456.23 340.38 452.45L340.38 452.45L340.03 452.96C 343.02 457.21 344.59 461.76 344.77 466.64C 344.94 471.51 345.02 475.21 345.02 477.73C 345.02 480.26 344.97 482.44 344.85 484.27L344.85 484.27L347.95 482.72L347.95 482.72L361.19 482.72C 360.85 486.51 360.56 489.6 360.33 492.01zM331.95 491.84L335.56 488.23L335.56 488.23L319.22 488.23C 318.19 486.28 317.04 483.99 315.78 481.35L315.78 481.35L318.7 479.63L318.7 479.63L317.15 478.42L317.15 478.42L317.15 461.91C 317.15 458.47 317.21 455.83 317.33 453.99L317.33 453.99L314.4 452.79C 314.52 457.15 314.57 460.93 314.57 464.14L314.57 464.14L314.57 479.28C 309.99 472.29 304.02 466.67 296.68 462.42L296.68 462.42L296.34 463.11C 300.12 465.86 303.76 469.33 307.26 473.52C 310.76 477.71 313.6 482.61 315.78 488.23L315.78 488.23L302.36 488.23C 300.87 488.23 299.49 488.06 298.23 487.71L298.23 487.71L296.68 489.26L296.68 489.26L329.37 489.26zM367.73 491.5C 370.14 490.12 371.75 489.06 372.55 488.31C 373.35 487.57 373.67 486.82 373.49 486.08C 373.32 485.33 373.01 484.82 372.55 484.53C 372.09 484.24 371.8 484.1 371.69 484.1C 371.23 484.1 370.89 484.56 370.66 485.48C 370.31 486.74 369.16 488.57 367.22 490.98zM389.92 491.5L393.71 489.6L393.71 489.6L392.5 488.57C 391.82 487.43 390.9 485.42 389.75 482.55L389.75 482.55L396.8 482.55L396.8 482.55L398.18 484.27L398.18 484.27L401.28 481.35C 399.56 481.12 397.49 479 395.08 474.98L395.08 474.98L394.57 475.33L394.57 475.33L397.15 481.52L397.15 481.52L389.41 481.52C 387.69 477.85 385.91 474.92 384.07 472.75L384.07 472.75L383.56 473.09C 385.16 475.84 386.51 479.05 387.6 482.72C 388.69 486.39 389.46 489.32 389.92 491.5zM463.72 489.26L466.13 486.85L466.13 486.85L464.58 485.82C 464.58 478.71 464.64 474.35 464.76 472.75L464.76 472.75L462.18 471.89L462.18 471.89L462.18 473.78L462.18 473.78L447.55 473.78L447.55 473.78L447.55 458.47C 447.55 456.86 448.41 456.06 450.13 456.06L450.13 456.06L462.86 456.06C 463.9 456.06 464.53 456.72 464.76 458.04C 464.99 459.36 465.1 461.45 465.1 464.32L465.1 464.32L465.96 464.32C 466.08 461.68 466.28 459.87 466.56 458.9C 466.85 457.92 467.45 457.21 468.37 456.75C 467.57 455.26 466.68 454.42 465.7 454.25C 464.73 454.08 463.55 453.99 462.18 453.99L462.18 453.99L448.93 453.99C 446.41 453.99 445.15 455.37 445.15 458.12L445.15 458.12L445.15 482.55C 445.15 484.5 445.09 486.68 444.97 489.09L444.97 489.09L447.9 487.54L447.9 487.54L462 487.54zM478.69 489.09C 482.13 486.57 484.11 484.87 484.63 484.01C 485.14 483.15 485.34 482.29 485.23 481.43C 485.11 480.57 484.83 479.91 484.37 479.46C 483.91 479 483.57 478.77 483.34 478.77C 482.88 478.77 482.42 479.63 481.96 481.35C 481.27 483.64 480.01 486.05 478.18 488.57zM265.54 487.37L268.3 484.62L268.3 484.62L266.58 483.58C 265.2 478.42 263.71 473.95 262.1 470.17C 263.82 467.64 264.94 465.66 265.46 464.23C 265.97 462.8 266.23 461.62 266.23 460.7C 266.23 459.79 266.03 459.07 265.63 458.55C 265.23 458.04 264.91 457.78 264.68 457.78C 264.23 457.78 263.88 458.7 263.65 460.53C 263.19 462.94 262.33 465.46 261.07 468.1C 258.43 463.28 255.39 458.93 251.95 455.03L251.95 455.03L251.44 455.54C 254.88 460.47 257.69 465.35 259.87 470.17C 258.38 473.03 256.48 476.3 254.19 479.97L254.19 479.97L254.71 480.32C 257 477.45 259.01 474.75 260.73 472.23C 261.87 475.33 262.96 479.46 264 484.62L264 484.62L258.15 484.62C 256.66 484.62 255.28 484.44 254.02 484.1L254.02 484.1L252.47 485.65L252.47 485.65L263.82 485.65zM447.55 486.51L447.55 474.81L447.55 474.81L453.75 474.81L453.75 474.81L453.75 486.51zM455.98 486.51L455.98 474.81L455.98 474.81L462.18 474.81L462.18 474.81L462.18 486.51zM275.69 483.58C 278.22 482.21 279.74 481.2 280.25 480.57C 280.77 479.94 281.03 479.46 281.03 479.11C 281.03 478.65 280.83 478.14 280.43 477.56C 280.02 476.99 279.71 476.7 279.48 476.7C 279.14 476.7 278.79 477.22 278.45 478.25C 277.87 479.86 276.78 481.46 275.18 483.07zM404.37 480.66L404.37 468.96L404.37 468.96L410.4 468.96L410.4 468.96L410.4 480.66zM412.63 480.66L412.63 468.96L412.63 468.96L418.65 468.96L418.65 468.96L418.65 480.66zM321.28 478.42C 328.62 473.61 332.67 470.62 333.41 469.48C 334.16 468.33 334.53 467.41 334.53 466.72C 334.53 466.27 334.36 465.72 334.01 465.09C 333.67 464.46 333.38 464.14 333.15 464.14C 332.69 464.14 332.01 465.06 331.09 466.9C 329.71 469.31 326.27 472.98 320.77 477.91zM230.45 476.87L232.86 474.98L232.86 474.98L231.65 473.95L231.65 473.95L231.65 455.89C 231.65 454.05 230.68 452.9 228.73 452.45C 228.73 453.59 227.58 454.51 225.29 455.2L225.29 455.2L225.29 455.71C 226.67 455.49 227.73 455.37 228.47 455.37C 229.22 455.37 229.53 455.77 229.42 456.57L229.42 456.57L229.42 462.94L229.42 462.94L223.4 462.94L223.4 462.94L223.4 453.82L223.4 453.82L220.99 452.62C 221.1 454.91 221.16 456.69 221.16 457.95L221.16 457.95L221.16 472.06C 221.16 473.43 221.1 474.98 220.99 476.7L220.99 476.7L223.4 475.33L223.4 475.33L229.25 475.33zM240.43 476.87L244.21 474.98L244.21 474.98L242.84 473.95L242.84 473.95L242.84 456.4C 242.95 454.34 241.8 452.96 239.4 452.27C 239.51 453.54 238.08 454.63 235.1 455.54L235.1 455.54L235.1 456.23C 237.04 456 238.45 455.89 239.31 455.89C 240.17 455.89 240.6 456.29 240.6 457.09L240.6 457.09L240.6 472.75C 240.6 474.01 240.54 475.38 240.43 476.87zM389.92 476.7L393.71 474.98L393.71 474.98L392.33 473.78L392.33 473.78L392.33 458.47L392.33 458.47L399.9 464.32L399.9 464.32L400.25 463.8C 395.08 458.64 392.27 455.37 391.82 453.99L391.82 453.99L389.41 456.75C 389.87 457.32 390.1 458.18 390.1 459.33L390.1 459.33L390.1 472.57C 390.1 473.72 390.04 475.1 389.92 476.7zM223.4 474.29L223.4 469.65L223.4 469.65L229.42 469.65L229.42 469.65L229.42 474.29zM234.75 474.29L238.02 472.92L238.02 472.92L236.99 471.71L236.99 471.71L236.99 464.66C 236.99 463.05 237.04 461.22 237.16 459.16L237.16 459.16L234.75 458.47C 234.87 460.3 234.92 461.74 234.92 462.77L234.92 462.77L234.92 470.51C 234.92 471.2 234.87 472.46 234.75 474.29zM223.4 468.62L223.4 463.97L223.4 463.97L229.42 463.97L229.42 463.97L229.42 468.62zM282.58 465.69L285.67 462.6L285.67 462.6L272.94 462.6C 271.45 462.6 270.07 462.42 268.81 462.08L268.81 462.08L267.27 463.63L267.27 463.63L280.51 463.63z" stroke="#000000" stroke-width="0.96" fill="none" /><g clip-path="url(#6)"></g><g clip-path="url(#7)"></g><g clip-path="url(#8)"></g><g clip-path="url(#9)"></g><g clip-path="url(#10)"></g><g clip-path="url(#11)"></g><g clip-path="url(#12)"></g><g clip-path="url(#13)"></g></g></g></svg>