<svg xmlns="http://www.w3.org/2000/svg" xmlns:xlink="http://www.w3.org/1999/xlink" id="body_6" preserveAspectRatio="xMinYMin meet" viewBox="0 0 960 720"><defs><clipPath id="1"><path id="" clip-rule="evenodd" transform="matrix(1 0 0 1 0 0)" d="M0 540L0 0L0 0L720 0L720 0L720 540L720 540L0 540z" /></clipPath><clipPath id="2"><path id="" clip-rule="evenodd" transform="matrix(1 0 0 1 0 0)" d="M0 539.9999L720 539.9999L720 539.9999L720 -0.0001220703L720 -0.0001220703L0 -0.0001220703z" /></clipPath><clipPath id="3"><path id="" clip-rule="evenodd" transform="matrix(1 0 0 1 0 0)" d="M1.0729E-05 540L720 540L720 540L720 0L720 0L1.0729E-05 0z" /></clipPath><clipPath id="4"><path id="" clip-rule="evenodd" transform="matrix(1 0 0 1 0 0)" d="M25.56 388.08L333 388.08L333 388.08L333 190.68L333 190.68L25.56 190.68z" /></clipPath><clipPath id="5"><path id="" clip-rule="evenodd" transform="matrix(1 0 0 1 0 0)" d="M558 384.24L648.72 384.24L648.72 384.24L648.72 190.8L648.72 190.8L558 190.8z" /></clipPath></defs><g transform="matrix(1.333333 0 0 1.333333 0 0)"><g clip-path="url(#1)"><g clip-path="url(#2)"><path id="1" transform="matrix(1 0 0 -1 0 540)" d="M0 6.1035E-05L720 6.1035E-05L720 6.1035E-05L720 540.0001L720 540.0001L0 540.0001z" stroke="none" fill="#FFFFFF" fill-rule="evenodd" /></g><g clip-path="url(#3)"></g><g clip-path="url(#4)"><g transform="matrix(0.480375 0 0 0.7505703 25.56 190.68)"><g transform="matrix(1 0 0 1 0 0)"><image x="0" y="0" xlink:href="img_07.png" width="640" height="263" /></g></g></g><g clip-path="url(#5)"><g transform="matrix(0.756 0 0 0.7526848 558 190.8)"><g transform="matrix(1 0 0 1 0 0)"><image x="0" y="0" xlink:href="img_08.png" width="120" height="257" /></g></g></g><path id="8" transform="matrix(1 0 0 -1 0 540)" d="M437.85 298.32L478.17 279.17L478.17 279.17L461.54 276.91L461.54 276.91L512.32 260.5L512.32 260.5L495.69 257.76L495.69 257.76L558.48 230.28L558.48 230.28L452 251.34L452 251.34L472.31 254.26L472.31 254.26L406.15 267.75L406.15 267.75L429.85 271.92L429.85 271.92L360 286.07z" stroke="none" fill="#FFFF00" fill-rule="evenodd" /><path id="9" transform="matrix(1 0 0 -1 0 540)" d="M437.85 298.32L478.17 279.17L478.17 279.17L461.54 276.91L461.54 276.91L512.32 260.5L512.32 260.5L495.69 257.76L495.69 257.76L558.48 230.28L558.48 230.28L452 251.34L452 251.34L472.31 254.26L472.31 254.26L406.15 267.75L406.15 267.75L429.85 271.92L429.85 271.92L360 286.07z" stroke="#89A4A7" stroke-width="1" fill="none" /></g></g></svg>